<svg width="264" height="139" viewBox="0 0 264 139" fill="none" xmlns="http://www.w3.org/2000/svg">
<g clip-path="url(#clip0_159_159)">
<path d="M264 2.30505H0V136.35H264V2.30505Z" fill="#357960"/>
<path d="M119.32 32.0176V47.7391C119.32 47.8844 119.262 48.0236 119.159 48.1263C119.057 48.229 118.918 48.2869 118.772 48.2873H118.383V130.186C118.383 132.453 117.483 134.626 115.882 136.229C114.281 137.831 112.11 138.732 109.846 138.732H58.7221C57.6011 138.732 56.4912 138.51 55.4556 138.081C54.42 137.651 53.4791 137.022 52.6866 136.228C51.8941 135.435 51.2655 134.493 50.8367 133.456C50.4079 132.419 50.1873 131.308 50.1875 130.186V51.1597H49.9053C49.8029 51.1598 49.7047 51.1193 49.632 51.0471C49.5594 50.9749 49.5184 50.8768 49.5179 50.7743V41.8268C49.5179 41.7759 49.5279 41.7254 49.5474 41.6784C49.5668 41.6313 49.5954 41.5886 49.6313 41.5526C49.6673 41.5166 49.71 41.488 49.757 41.4685C49.804 41.449 49.8544 41.439 49.9053 41.439H50.1875V38.0687H49.9029C49.7954 38.0683 49.6925 38.0252 49.6168 37.949C49.541 37.8727 49.4986 37.7694 49.4988 37.6618V28.8364C49.4991 28.7292 49.5417 28.6265 49.6174 28.5507C49.6932 28.4749 49.7958 28.4321 49.9029 28.4319H50.1875V23.8313H49.8981C49.851 23.8313 49.8043 23.8221 49.7608 23.8041C49.7172 23.786 49.6776 23.7596 49.6443 23.7262C49.611 23.6929 49.5846 23.6533 49.5666 23.6097C49.5486 23.5661 49.5393 23.5194 49.5394 23.4722V18.6562C49.5392 18.5607 49.5768 18.469 49.6441 18.4012C49.7113 18.3334 49.8027 18.2951 49.8981 18.2947H50.1875V8.54297C50.1875 6.27726 51.0868 4.10437 52.6873 2.50227C54.2878 0.900168 56.4586 8.25233e-05 58.722 0H109.846C112.109 -1.02428e-05 114.281 0.899972 115.881 2.50202C117.482 4.10407 118.382 6.27701 118.383 8.54297V31.4694H118.772C118.918 31.4698 119.057 31.5277 119.159 31.6304C119.262 31.7331 119.32 31.8723 119.32 32.0176Z" fill="#3F3D56"/>
<path opacity="0.1" d="M226.863 2.30511L113.831 79.9793L106.116 68.7315L202.783 2.30511H226.863Z" fill="black"/>
<path opacity="0.1" d="M264 2.30511V13.5529L104.983 122.826L97.2688 111.578L256.288 2.30511H264Z" fill="black"/>
<path opacity="0.1" d="M264 35.4142V51.9615L141.197 136.35H117.114L264 35.4142Z" fill="black"/>
<path d="M255.87 138.512H7.21509V138.991H255.87V138.512Z" fill="#3F3D56"/>
<path d="M200.787 99.6451L190.648 92.4399L183.45 102.589L193.589 109.795L200.787 99.6451Z" fill="#F0F0F0"/>
<path d="M193.498 112.411C192.93 112.411 192.375 112.243 191.903 111.927C191.432 111.612 191.064 111.163 190.847 110.638C190.629 110.113 190.573 109.536 190.683 108.979C190.794 108.422 191.067 107.91 191.469 107.508C191.87 107.106 192.381 106.833 192.938 106.722C193.495 106.611 194.072 106.668 194.596 106.885C195.12 107.103 195.568 107.471 195.884 107.943C196.199 108.416 196.367 108.971 196.367 109.539C196.366 110.301 196.064 111.031 195.526 111.569C194.988 112.108 194.259 112.411 193.498 112.411ZM193.498 107.145C193.025 107.145 192.562 107.286 192.169 107.549C191.776 107.812 191.469 108.186 191.288 108.623C191.107 109.06 191.06 109.542 191.152 110.006C191.245 110.47 191.472 110.897 191.807 111.232C192.141 111.566 192.567 111.794 193.031 111.887C193.495 111.979 193.976 111.932 194.413 111.751C194.85 111.569 195.223 111.263 195.486 110.869C195.749 110.475 195.889 110.012 195.889 109.539C195.888 108.904 195.636 108.296 195.188 107.847C194.74 107.399 194.132 107.146 193.498 107.145Z" fill="#3F3D56"/>
<path d="M136.346 24.0855C135.778 24.0855 135.223 23.917 134.751 23.6014C134.279 23.2858 133.912 22.8372 133.695 22.3123C133.477 21.7874 133.42 21.2099 133.531 20.6527C133.642 20.0955 133.915 19.5837 134.317 19.182C134.718 18.7803 135.229 18.5067 135.786 18.3959C136.342 18.2851 136.919 18.3419 137.444 18.5593C137.968 18.7768 138.416 19.1449 138.732 19.6173C139.047 20.0896 139.215 20.645 139.215 21.2131C139.214 21.9746 138.912 22.7047 138.374 23.2432C137.836 23.7817 137.106 24.0846 136.346 24.0855ZM136.346 18.8194C135.873 18.8194 135.41 18.9598 135.017 19.2228C134.624 19.4859 134.317 19.8597 134.136 20.2971C133.955 20.7345 133.908 21.2157 134 21.6801C134.093 22.1444 134.32 22.5709 134.655 22.9057C134.989 23.2404 135.415 23.4684 135.879 23.5608C136.343 23.6531 136.824 23.6057 137.261 23.4245C137.698 23.2434 138.071 22.9366 138.334 22.5429C138.597 22.1493 138.737 21.6865 138.737 21.2131C138.736 20.5785 138.484 19.97 138.036 19.5213C137.587 19.0726 136.98 18.8201 136.346 18.8194Z" fill="#F0F0F0"/>
<path d="M33.2744 121.142H32.7961V138.953H33.2744V121.142Z" fill="#3F3D56"/>
<path d="M33.0354 123.66C34.4251 123.66 35.5517 122.533 35.5517 121.142C35.5517 119.751 34.4251 118.623 33.0354 118.623C31.6456 118.623 30.519 119.751 30.519 121.142C30.519 122.533 31.6456 123.66 33.0354 123.66Z" fill="#3F3D56"/>
<path d="M33.0354 132.119C33.0354 132.119 32.6759 124.38 25.3066 125.28L33.0354 132.119Z" fill="#3F3D56"/>
<path d="M86.7469 4.38202H78.4396C78.1039 4.38202 77.8318 4.65443 77.8318 4.99046V5.70919C77.8318 6.04522 78.1039 6.31763 78.4396 6.31763H86.7469C87.0826 6.31763 87.3548 6.04522 87.3548 5.70919V4.99046C87.3548 4.65443 87.0826 4.38202 86.7469 4.38202Z" fill="#E6E8EC"/>
<path d="M89.8915 6.44773C90.4972 6.44773 90.9883 5.95619 90.9883 5.34984C90.9883 4.74349 90.4972 4.25195 89.8915 4.25195C89.2857 4.25195 88.7947 4.74349 88.7947 5.34984C88.7947 5.95619 89.2857 6.44773 89.8915 6.44773Z" fill="#E6E8EC"/>
<path d="M114.295 10.2329V130.895C114.294 132.332 113.723 133.711 112.708 134.727C111.692 135.743 110.315 136.314 108.879 136.314H59.9405C59.2291 136.315 58.5244 136.176 57.8668 135.904C57.2093 135.632 56.6118 135.233 56.1087 134.73C55.6055 134.226 55.2065 133.628 54.9346 132.97C54.6627 132.312 54.5232 131.607 54.5242 130.895V10.2329C54.5241 9.52087 54.6642 8.81585 54.9364 8.15805C55.2086 7.50025 55.6076 6.90257 56.1105 6.39911C56.6135 5.89566 57.2106 5.49631 57.8677 5.22386C58.5249 4.9514 59.2292 4.81119 59.9405 4.81122H67.265V5.75193C67.2651 6.9359 67.7349 8.07137 68.5713 8.90856C69.4077 9.74575 70.542 10.2161 71.7248 10.2161H96.6135C97.7963 10.2161 98.9307 9.74576 99.7671 8.90857C100.603 8.07137 101.073 6.9359 101.073 5.75193V4.81122H108.879C109.59 4.81099 110.294 4.95107 110.952 5.22345C111.609 5.49583 112.206 5.89517 112.709 6.39866C113.212 6.90216 113.611 7.49992 113.883 8.15781C114.155 8.8157 114.295 9.52081 114.295 10.2329Z" fill="#357960"/>
<path d="M112.478 31H57V58.0483H112.478V31Z" fill="#3F3D56"/>
<path d="M112.478 69H57V96.0483H112.478V69Z" fill="#3F3D56"/>
<path d="M84.7826 125.575C87.424 125.575 89.5652 123.431 89.5652 120.787C89.5652 118.143 87.424 116 84.7826 116C82.1412 116 80 118.143 80 120.787C80 123.431 82.1412 125.575 84.7826 125.575Z" fill="white"/>
<path d="M86.9347 120.633H84.9363V118.633H84.6288V120.633H82.6304V120.941H84.6288V122.942H84.9363V120.941H86.9347V120.633Z" fill="#3F3D56"/>
<path d="M79.3368 49.5727C80.789 54.9464 85.7634 58.2746 85.7634 58.2746C85.7634 58.2746 88.3832 52.8901 86.9309 47.5163C85.4786 42.1425 80.5043 38.8144 80.5043 38.8144C80.5043 38.8144 77.8845 44.1989 79.3368 49.5727Z" fill="white"/>
<path d="M81.4709 48.4178C85.456 52.3009 85.9427 58.2702 85.9427 58.2702C85.9427 58.2702 79.9684 57.9436 75.9833 54.0605C71.9982 50.1774 71.5115 44.2081 71.5115 44.2081C71.5115 44.2081 77.4858 44.5346 81.4709 48.4178Z" fill="#357960"/>
<path d="M79.3368 87.5726C80.789 92.9464 85.7634 96.2745 85.7634 96.2745C85.7634 96.2745 88.3832 90.89 86.9309 85.5162C85.4786 80.1424 80.5043 76.8143 80.5043 76.8143C80.5043 76.8143 77.8845 82.1988 79.3368 87.5726Z" fill="white"/>
<path d="M81.4709 86.4178C85.456 90.3009 85.9427 96.2702 85.9427 96.2702C85.9427 96.2702 79.9684 95.9436 75.9833 92.0605C71.9982 88.1774 71.5115 82.2081 71.5115 82.2081C71.5115 82.2081 77.4858 82.5346 81.4709 86.4178Z" fill="#357960"/>
<path d="M92.5486 87.5726C91.0963 92.9464 86.1219 96.2745 86.1219 96.2745C86.1219 96.2745 83.5022 90.89 84.9544 85.5162C86.4067 80.1424 91.3811 76.8143 91.3811 76.8143C91.3811 76.8143 94.0009 82.1988 92.5486 87.5726Z" fill="white"/>
<path d="M90.4144 86.4178C86.4294 90.3009 85.9426 96.2702 85.9426 96.2702C85.9426 96.2702 91.917 95.9436 95.902 92.0605C99.8871 88.1774 100.374 82.2081 100.374 82.2081C100.374 82.2081 94.3995 82.5346 90.4144 86.4178Z" fill="#357960"/>
<path d="M233.391 28.9422H228.671V24.2168H233.391V28.9422ZM229.034 28.5787H233.028V24.5803H229.034V28.5787Z" fill="#3F3D56"/>
<path d="M236.176 135.958L232.956 132.502L236.408 129.279L239.628 132.735L236.176 135.958ZM233.469 132.52L236.194 135.444L239.115 132.717L236.39 129.793L233.469 132.52Z" fill="#F0F0F0"/>
<path d="M32.8349 26.6619C34.166 26.6619 35.245 25.5818 35.245 24.2494C35.245 22.917 34.166 21.8369 32.8349 21.8369C31.5038 21.8369 30.4248 22.917 30.4248 24.2494C30.4248 25.5818 31.5038 26.6619 32.8349 26.6619Z" fill="#F0F0F0"/>
<path d="M32.8351 31.2188C31.458 31.2188 30.1119 30.81 28.9669 30.0442C27.8219 29.2784 26.9295 28.19 26.4026 26.9165C25.8756 25.643 25.7377 24.2417 26.0063 22.8898C26.275 21.5378 26.9381 20.296 27.9118 19.3213C28.8856 18.3466 30.1262 17.6829 31.4768 17.4139C32.8274 17.145 34.2273 17.283 35.4995 17.8105C36.7718 18.338 37.8592 19.2313 38.6242 20.3774C39.3893 21.5235 39.7976 22.871 39.7976 24.2494C39.7955 26.0972 39.0613 27.8687 37.756 29.1752C36.4508 30.4818 34.681 31.2167 32.8351 31.2188ZM32.8351 17.8161C31.564 17.8161 30.3214 18.1934 29.2645 18.9003C28.2076 19.6072 27.3838 20.612 26.8974 21.7875C26.4109 22.963 26.2836 24.2565 26.5316 25.5045C26.7796 26.7524 27.3917 27.8987 28.2905 28.7984C29.1894 29.6981 30.3345 30.3108 31.5812 30.5591C32.828 30.8073 34.1202 30.6799 35.2946 30.193C36.4689 29.7061 37.4727 28.8815 38.1789 27.8235C38.8851 26.7656 39.262 25.5218 39.262 24.2494C39.2601 22.5438 38.5823 20.9086 37.3775 19.7026C36.1726 18.4965 34.539 17.8181 32.8351 17.8161Z" fill="#2F2E41"/>
<path d="M232.913 51.3751H154.478V57.8379H232.913V51.3751Z" fill="#F0F0F0"/>
<path d="M222.989 66.4551H164.402V68.9582H222.989V66.4551Z" fill="#F0F0F0"/>
<path d="M222.989 70.4879H164.402V72.9909H222.989V70.4879Z" fill="#F0F0F0"/>
<path d="M222.989 74.5206H164.402V77.0236H222.989V74.5206Z" fill="#F0F0F0"/>
<path d="M222.989 78.5533H164.402V81.0564H222.989V78.5533Z" fill="#F0F0F0"/>
</g>
<defs>
<clipPath id="clip0_159_159">
<rect width="264" height="139" fill="white"/>
</clipPath>
</defs>
</svg>
