<svg width="142" height="106" viewBox="0 0 142 106" fill="none" xmlns="http://www.w3.org/2000/svg">
<g clip-path="url(#clip0_159_195)">
<path d="M103.688 100.716H100.862L99.5178 89.8315H103.688V100.716Z" fill="#9E616A"/>
<path d="M105.179 105.605H103.153L102.791 103.695L101.865 105.605H96.491C96.2335 105.605 95.9826 105.523 95.7751 105.371C95.5676 105.218 95.4144 105.003 95.3377 104.758C95.261 104.512 95.265 104.249 95.349 104.005C95.433 103.762 95.5926 103.552 95.8046 103.406L100.096 100.446V98.5142L104.61 98.7832L105.179 105.605Z" fill="#2F2E41"/>
<path d="M120.474 97.1547L118.206 98.8386L110.625 90.9057L113.971 88.4203L120.474 97.1547Z" fill="#9E616A"/>
<path d="M124.591 100.189L122.965 101.397L121.534 100.079L121.932 102.165L117.62 105.367C117.413 105.521 117.162 105.604 116.905 105.606C116.647 105.607 116.396 105.526 116.188 105.375C115.979 105.223 115.825 105.009 115.747 104.764C115.669 104.519 115.672 104.255 115.755 104.012L117.43 99.0785L116.276 97.5285L120.059 95.0542L124.591 100.189Z" fill="#2F2E41"/>
<path d="M106.977 44.5578C106.977 44.5578 112.338 49.1835 109.865 62.3704L106.845 75.2913L116.693 91.6086L113.553 95.4238L100.751 77.7623L96.1113 66.8935L94.8096 47.5491L106.977 44.5578Z" fill="#2F2E41"/>
<path d="M98.6684 69.9908L98.3459 74.9782L99.3327 96.2315L103.976 95.4238L104.863 80.2918L98.6684 69.9908Z" fill="#2F2E41"/>
<path d="M39.0831 103.275L41.6099 103.275L42.8118 93.5413L39.0828 93.5414L39.0831 103.275Z" fill="#FFB6B6"/>
<path d="M38.4387 102.451L39.1499 102.451L41.9265 101.323L43.4147 102.451H43.4149C44.2559 102.451 45.0624 102.785 45.6571 103.379C46.2518 103.973 46.5859 104.778 46.5859 105.618V105.721L38.4389 105.721L38.4387 102.451Z" fill="#2F2E41"/>
<path d="M48.8748 101.685L51.3393 102.241L54.6586 93.0105L51.0211 92.1901L48.8748 101.685Z" fill="#FFB6B6"/>
<path d="M48.4276 100.739L49.1214 100.896L52.0785 100.407L53.2814 101.834L53.2816 101.834C54.1019 102.019 54.8151 102.522 55.2641 103.232C55.7132 103.942 55.8615 104.802 55.6763 105.621L55.6536 105.721L47.7065 103.929L48.4276 100.739Z" fill="#2F2E41"/>
<path d="M35.8832 43.768C34.6986 47.3364 34.8238 51.2099 36.1679 55.3671L36.7425 78.7735C36.7425 78.7735 35.8864 94.1229 38.6489 99.5242H42.6552L44.6388 77.3717L44.8879 62.5028L53.4771 75.0471L48.0064 99.1621L52.9372 99.6023L61.8147 73.432L50.8617 48.0423L35.8832 43.768Z" fill="#2F2E41"/>
<path d="M82.085 33.6037C85.1494 30.8457 89.7074 29.459 93.5307 31.0055C89.6088 33.1802 86.5835 36.6704 84.99 40.8585C84.3813 42.4759 83.873 44.3381 82.3759 45.204C81.4443 45.7428 80.2854 45.7692 79.241 45.5091C78.1965 45.249 77.2391 44.7275 76.2948 44.2113L76.0261 44.2052C77.2323 40.2654 79.0206 36.3617 82.085 33.6037Z" fill="#E6E6E6"/>
<path d="M93.5093 31.0893C90.1232 31.5263 86.9609 33.0179 84.4718 35.3521C83.927 35.8451 83.4635 36.4208 83.0982 37.058C82.7624 37.6902 82.6023 38.4006 82.6344 39.1155C82.651 39.7827 82.7453 40.4632 82.5991 41.1228C82.5193 41.4593 82.3692 41.7752 82.1586 42.0497C81.948 42.3242 81.6817 42.5511 81.3771 42.7156C80.6288 43.1451 79.7707 43.2806 78.9269 43.3839C77.99 43.4986 77.015 43.6029 76.204 44.1277C76.1057 44.1913 76.0127 44.0353 76.1108 43.9718C77.5218 43.0587 79.3073 43.3909 80.8245 42.7815C81.5324 42.4971 82.1588 41.9979 82.3806 41.2432C82.5745 40.5832 82.4778 39.8814 82.4552 39.206C82.4137 38.5091 82.5436 37.8125 82.8337 37.1773C83.1653 36.5236 83.6059 35.931 84.1365 35.425C85.3131 34.2666 86.6647 33.3003 88.1418 32.5612C89.8229 31.7085 91.6377 31.1492 93.5076 30.9077C93.6234 30.8928 93.6243 31.0745 93.5093 31.0893Z" fill="white"/>
<path d="M85.2291 34.5534C84.8936 34.0831 84.7365 33.5091 84.7857 32.9338C84.8349 32.3585 85.0873 31.8194 85.4977 31.4128C85.5811 31.3308 85.7126 31.4563 85.6291 31.5384C85.2462 31.9163 85.0112 32.4185 84.9664 32.9543C84.9217 33.4901 85.0702 34.0243 85.3852 34.4603C85.4535 34.5552 85.297 34.6477 85.2291 34.5534Z" fill="white"/>
<path d="M82.5814 38.7783C83.7451 38.9842 84.9437 38.7445 85.9382 38.107C86.0367 38.0438 86.1298 38.1998 86.0314 38.2629C84.9952 38.9244 83.7474 39.1713 82.537 38.9544C82.4216 38.9336 82.4667 38.7577 82.5814 38.7783Z" fill="white"/>
<path d="M89.8378 31.9488C89.9296 32.1578 90.072 32.3407 90.2521 32.4811C90.4322 32.6216 90.6444 32.7151 90.8696 32.7534C90.9852 32.7727 90.9399 32.9486 90.8251 32.9295C90.5765 32.886 90.3422 32.7824 90.1429 32.6277C89.9436 32.473 89.7853 32.2718 89.6817 32.0419C89.6701 32.021 89.6669 31.9966 89.6728 31.9734C89.6786 31.9503 89.6931 31.9303 89.7132 31.9174C89.7339 31.9052 89.7586 31.9016 89.7819 31.9075C89.8053 31.9134 89.8254 31.9282 89.8378 31.9488Z" fill="white"/>
<path d="M97.7409 44.3058C97.6684 44.2959 97.5959 44.2859 97.5223 44.277C96.5469 44.1477 95.5625 44.0977 94.5789 44.1276C94.5029 44.1287 94.4258 44.131 94.3499 44.1343C91.9811 44.2316 89.6509 44.7673 87.4779 45.7142C86.6135 46.0917 85.7792 46.5344 84.9821 47.0385C83.8813 47.7346 82.7432 48.5768 81.5127 48.8607C81.3846 48.8918 81.2548 48.9149 81.1238 48.9299L76.0396 44.5331C76.0331 44.5173 76.0255 44.5026 76.0189 44.4868L75.8079 44.3205C75.8472 44.2916 75.8885 44.2625 75.9278 44.2337C75.9505 44.2168 75.9744 44.201 75.9971 44.1841C76.0126 44.1732 76.0282 44.1624 76.0416 44.1516C76.0467 44.148 76.0519 44.1444 76.0561 44.1419C76.0694 44.1311 76.083 44.1226 76.0953 44.113C76.3262 43.9498 76.5585 43.7878 76.7925 43.6273C76.7935 43.6261 76.7935 43.6261 76.7956 43.6259C78.5663 42.3854 80.4781 41.359 82.4909 40.5683C82.5513 40.5455 82.6126 40.5215 82.6753 40.5007C83.5818 40.1641 84.5143 39.902 85.4635 39.7171C85.9836 39.6176 86.5084 39.5444 87.0359 39.4978C88.3991 39.3801 89.7723 39.4772 91.1053 39.7857C93.7625 40.4011 96.193 41.8584 97.6326 44.1311C97.6694 44.1893 97.7051 44.2465 97.7409 44.3058Z" fill="#E6E6E6"/>
<path d="M97.6737 44.3604C94.7065 42.6732 91.2825 41.9626 87.888 42.3296C87.1559 42.3956 86.4387 42.5766 85.7629 42.8657C85.1138 43.1685 84.5576 43.6395 84.1523 44.2296C83.7634 44.7722 83.4284 45.3723 82.9141 45.8111C82.6476 46.0318 82.3373 46.1937 82.0037 46.2862C81.67 46.3787 81.3206 46.3998 80.9782 46.348C80.1219 46.241 79.355 45.8331 78.619 45.4082C77.8018 44.9364 76.9605 44.4334 75.9966 44.3648C75.8798 44.3565 75.8995 44.1759 76.0161 44.1842C77.6932 44.3036 78.9185 45.6425 80.4973 46.0683C81.234 46.2669 82.0351 46.245 82.667 45.7758C83.2197 45.3654 83.5656 44.7469 83.9547 44.1941C84.3416 43.6126 84.8652 43.1346 85.4798 42.8018C86.1386 42.4793 86.8476 42.2711 87.5764 42.1862C89.2141 41.9688 90.8758 42.0099 92.5006 42.3081C94.357 42.6381 96.1431 43.2828 97.7818 44.2144C97.8832 44.2721 97.7744 44.4178 97.6737 44.3604Z" fill="white"/>
<path d="M88.9741 42.1472C88.9898 41.57 89.2104 41.0172 89.5965 40.5874C89.9826 40.1577 90.5091 39.879 91.0819 39.8012C91.1978 39.7858 91.2272 39.9651 91.1111 39.9804C90.5775 40.0519 90.0871 40.3116 89.7284 40.7125C89.3697 41.1134 89.1663 41.6292 89.1549 42.1667C89.1523 42.2835 88.9715 42.2633 88.9741 42.1472Z" fill="white"/>
<path d="M84.3133 43.9285C85.1183 44.7926 86.2198 45.322 87.3982 45.411C87.5149 45.4197 87.4952 45.6003 87.3786 45.5915C86.1525 45.4966 85.0073 44.9434 84.1717 44.0423C84.0921 43.9564 84.2341 43.843 84.3133 43.9285Z" fill="white"/>
<path d="M94.2238 42.8388C94.1712 43.0609 94.1746 43.2925 94.2337 43.513C94.2928 43.7334 94.4059 43.9357 94.5626 44.1017C94.6433 44.1866 94.5011 44.2999 94.421 44.2156C94.2486 44.0313 94.1241 43.8077 94.0582 43.5644C93.9923 43.321 93.9871 43.0652 94.0431 42.8193C94.0464 42.7957 94.0586 42.7742 94.0772 42.7593C94.0958 42.7443 94.1194 42.737 94.1432 42.7388C94.1671 42.7415 94.189 42.7535 94.2041 42.7723C94.2192 42.791 94.2263 42.8149 94.2238 42.8388Z" fill="white"/>
<path d="M8.43951 103.098C8.20085 103.993 7.57372 104.737 6.81657 105.28C6.69312 105.369 6.56638 105.451 6.43799 105.528C6.39849 105.551 6.35898 105.576 6.31783 105.597C6.27339 105.624 6.22895 105.648 6.18451 105.671H2.62423C2.56004 105.541 2.49749 105.41 2.43495 105.28C0.909115 102.077 -0.162424 98.6219 0.0202812 95.1022C0.0927668 93.737 0.379939 92.3916 0.871257 91.1156C1.84897 88.5724 3.63323 86.3711 6.0874 85.2631C6.1483 85.2352 6.21249 85.2072 6.27504 85.1809C6.25529 85.2516 6.23554 85.3206 6.21578 85.3913C5.95249 86.3387 5.76644 87.3057 5.65944 88.2831C5.64956 88.3587 5.64133 88.4343 5.63475 88.5116C5.40091 90.8686 5.60855 93.2485 6.24706 95.5296C6.2487 95.5345 6.25034 95.5411 6.252 95.5461C6.39191 96.0507 6.55431 96.5478 6.73921 97.0371C6.88405 97.4234 7.04042 97.8048 7.21161 98.1797C7.92597 99.7529 8.88392 101.43 8.43951 103.098Z" fill="#357960"/>
<path d="M6.3194 85.2549C6.28484 85.301 6.25026 85.3454 6.21571 85.3914C5.49276 86.3483 4.87886 87.3827 4.38537 88.4755C4.35903 88.5297 4.33434 88.584 4.31294 88.6399C3.63677 90.1658 3.20251 91.7875 3.02578 93.4468C3.02387 93.4582 3.02277 93.4697 3.02249 93.4813C2.98134 93.8693 2.95665 94.2605 2.94677 94.6518C2.91017 95.3852 2.9896 96.1197 3.18215 96.8284C3.35771 97.4071 3.66535 97.9372 4.08086 98.377C4.12201 98.4214 4.16316 98.4658 4.2076 98.5085C4.24052 98.543 4.27673 98.5776 4.3113 98.6104C4.64379 98.9277 5.00755 99.222 5.32029 99.5623C5.46363 99.7149 5.59308 99.8799 5.7071 100.055C5.88906 100.35 6.00661 100.679 6.052 101.022C6.09739 101.365 6.0696 101.713 5.97045 102.045C5.7466 102.877 5.2347 103.578 4.71127 104.248C4.44956 104.583 4.17962 104.922 3.94589 105.28C3.8603 105.408 3.78129 105.538 3.70888 105.671H3.50148C3.57061 105.538 3.64633 105.408 3.72863 105.28C4.32941 104.335 5.18368 103.523 5.62645 102.482C5.92602 101.78 6.01655 100.984 5.63797 100.295C5.52702 100.095 5.39276 99.9087 5.238 99.7398C4.93678 99.3995 4.57631 99.1086 4.24876 98.8011C4.16646 98.7239 4.08581 98.645 4.00844 98.5628C3.5983 98.1466 3.2818 97.6478 3.08011 97.0996C2.85169 96.4035 2.7437 95.6735 2.76078 94.9411C2.76078 94.4742 2.78548 94.0041 2.83156 93.5372C2.8365 93.478 2.84308 93.4172 2.84967 93.3564C3.18628 90.4184 4.30419 87.6239 6.08733 85.2632C6.12025 85.2171 6.15481 85.1727 6.18938 85.1284C6.26015 85.0363 6.39018 85.1645 6.3194 85.2549Z" fill="white"/>
<path d="M2.91608 93.5527C2.34596 93.4571 1.82844 93.1621 1.45594 92.7206C1.08345 92.279 0.880233 91.7196 0.882589 91.1422C0.882904 91.1187 0.892356 91.0962 0.908955 91.0794C0.925554 91.0627 0.948004 91.0531 0.971574 91.0526C0.995143 91.0521 1.01799 91.0607 1.03531 91.0767C1.05262 91.0927 1.06305 91.1147 1.0644 91.1382C1.06121 91.6759 1.25056 92.197 1.59826 92.6075C1.94597 93.0179 2.42914 93.2907 2.96055 93.3766C3.07601 93.3955 3.03088 93.5714 2.91608 93.5527Z" fill="white"/>
<path d="M4.03516 98.41C5.00376 97.7338 5.68159 96.7178 5.9335 95.5647C5.95836 95.4504 6.13462 95.4949 6.10978 95.6091C5.8454 96.8086 5.13786 97.8645 4.12836 98.5659C4.0321 98.6327 3.93941 98.4764 4.03516 98.41Z" fill="white"/>
<path d="M4.33105 88.4562C4.54393 88.5391 4.77408 88.5679 5.00086 88.5401C5.22763 88.5122 5.44392 88.4285 5.63031 88.2965C5.72568 88.2285 5.81826 88.3849 5.72351 88.4524C5.5169 88.5973 5.27792 88.6894 5.02743 88.7208C4.77695 88.7521 4.52259 88.7218 4.28658 88.6323C4.26362 88.6257 4.24403 88.6107 4.23179 88.5902C4.21955 88.5697 4.21557 88.5453 4.22067 88.522C4.22668 88.4988 4.24164 88.4788 4.26231 88.4665C4.28298 88.4541 4.30768 88.4505 4.33105 88.4562Z" fill="white"/>
<path d="M18.6676 91.6121C18.61 91.6565 18.5508 91.7008 18.4932 91.7469C17.7117 92.3442 16.9801 93.0039 16.3056 93.7196C16.253 93.7739 16.2003 93.8298 16.1493 93.8857L16.1476 93.8873C14.5484 95.6212 13.2839 97.6355 12.4178 99.8286L12.4129 99.8434C12.4112 99.8483 12.4096 99.8516 12.4079 99.8565C12.0647 100.734 11.7879 101.637 11.58 102.556C11.3792 103.453 11.2146 104.415 10.9002 105.28C10.8525 105.413 10.7998 105.545 10.7438 105.671H3.42578C3.45047 105.541 3.47681 105.41 3.50314 105.28C3.87541 103.375 4.45723 101.517 5.23801 99.7398C5.26435 99.6806 5.29069 99.6214 5.32031 99.5622C5.72339 98.6841 6.19735 97.8401 6.73751 97.0388L6.73763 97.0381L6.73798 97.0376L6.73852 97.0372L6.73916 97.0371C7.03576 96.5999 7.3544 96.1779 7.69383 95.7729C8.57414 94.7269 9.61399 93.8259 10.7751 93.1031C10.7817 93.0982 10.7899 93.0949 10.7965 93.09C13.1075 91.6581 15.8464 90.9759 18.4652 91.566H18.4668C18.5343 91.5808 18.6002 91.5956 18.6676 91.6121Z" fill="#357960"/>
<path d="M18.6596 91.6992C18.6036 91.714 18.5476 91.7304 18.4933 91.7469C17.3397 92.0761 16.2263 92.5321 15.1734 93.1064C15.1207 93.1344 15.068 93.164 15.0153 93.1936C13.5602 94.0047 12.2394 95.0356 11.0995 96.2497C11.0986 96.2506 11.0981 96.2517 11.0979 96.253C11.0847 96.2661 11.0699 96.2809 11.0584 96.2941C10.795 96.5768 10.5415 96.8711 10.3012 97.1736C9.83114 97.7376 9.45237 98.3716 9.17866 99.0526C8.9695 99.6202 8.89567 100.229 8.96303 100.83C8.96797 100.891 8.9762 100.95 8.98443 101.011C8.99101 101.058 8.9976 101.106 9.00583 101.155C9.11446 101.814 9.30211 102.475 9.24943 103.148C9.21739 103.492 9.11267 103.826 8.94217 104.127C8.77167 104.428 8.53924 104.69 8.2602 104.895C8.0705 105.042 7.86775 105.17 7.65447 105.28C7.34954 105.437 7.03182 105.568 6.70474 105.671H6.05786C6.1451 105.647 6.23069 105.622 6.31793 105.597C6.6275 105.51 6.93147 105.404 7.22816 105.28C7.39765 105.209 7.56257 105.128 7.72196 105.037C8.38364 104.657 8.93506 104.075 9.05027 103.297C9.15068 102.617 8.95645 101.936 8.84123 101.27C8.82148 101.155 8.80337 101.042 8.7935 100.928C8.71491 100.352 8.76264 99.7651 8.9334 99.2088C9.17024 98.5148 9.5243 97.8665 9.98025 97.2919C10.2623 96.9178 10.5634 96.5584 10.8823 96.2151C10.9218 96.1708 10.9629 96.1264 11.0057 96.082C12.1695 94.8592 13.5133 93.8209 14.9906 93.0029H14.9923C16.0908 92.3921 17.2562 91.91 18.4653 91.566H18.467C18.5213 91.5496 18.5773 91.5332 18.6316 91.5184C18.7451 91.4888 18.7715 91.668 18.6596 91.6992Z" fill="white"/>
<path d="M10.9405 96.2776C10.5429 95.8584 10.3075 95.3117 10.2763 94.7351C10.245 94.1586 10.42 93.5897 10.7699 93.1301C10.8411 93.0374 10.9887 93.1434 10.9175 93.2363C10.5908 93.6637 10.4279 94.1936 10.4581 94.7304C10.4883 95.2672 10.7096 95.7756 11.0821 96.1637C11.163 96.2482 11.0209 96.3615 10.9405 96.2776Z" fill="white"/>
<path d="M8.90588 100.829C10.0869 100.871 11.2405 100.468 12.1368 99.6984C12.2256 99.6221 12.3394 99.7637 12.2508 99.8399C11.3166 100.639 10.1152 101.056 8.88632 101.009C8.76919 101.005 8.78939 100.824 8.90588 100.829Z" fill="white"/>
<path d="M15.1425 93.059C15.2625 93.2532 15.4289 93.4146 15.6267 93.5287C15.8246 93.6428 16.0478 93.7061 16.2762 93.7128C16.3933 93.7158 16.373 93.8963 16.2566 93.8933C16.0043 93.8847 15.7579 93.8146 15.539 93.689C15.3201 93.5634 15.1354 93.3862 15.0008 93.1729C14.9865 93.1538 14.9799 93.13 14.9825 93.1063C14.985 93.0826 14.9966 93.0607 15.0147 93.0452C15.0335 93.0302 15.0575 93.0233 15.0814 93.0259C15.1054 93.0284 15.1273 93.0404 15.1425 93.059Z" fill="white"/>
<path d="M75.1199 28.4617C74.951 28.6837 74.7354 28.8659 74.4883 28.9956C74.2413 29.1253 73.9687 29.1993 73.6899 29.2125C73.4111 29.2256 73.1328 29.1775 72.8746 29.0716C72.6164 28.9657 72.3846 28.8045 72.1955 28.5994L65.9736 31.3021L66.5797 27.8331L72.3952 25.7984C72.7612 25.504 73.2226 25.3539 73.692 25.3766C74.1614 25.3992 74.6061 25.5931 74.942 25.9213C75.2778 26.2496 75.4815 26.6896 75.5143 27.1578C75.547 27.626 75.4067 28.0899 75.1199 28.4617Z" fill="#FFB8B8"/>
<path d="M70.9679 29.5449L56.5165 35.9741L56.4855 35.963L40.0146 30.1009C38.7877 29.4605 37.8524 28.3759 37.4001 27.0692C36.9478 25.7625 37.0127 24.3325 37.5816 23.072C37.8969 22.3756 38.3563 21.7538 38.9296 21.2475C39.5029 20.7412 40.177 20.3619 40.9077 20.1346C41.6383 19.9073 42.4089 19.8371 43.1686 19.9287C43.9284 20.0202 44.6601 20.2715 45.3156 20.6658L57.573 28.0405L69.4589 26.5019L70.9679 29.5449Z" fill="#E6E6E6"/>
<path d="M142 105.804C142 105.83 141.995 105.856 141.985 105.879C141.975 105.903 141.961 105.925 141.943 105.943C141.924 105.961 141.903 105.975 141.879 105.985C141.855 105.995 141.83 106 141.804 106H0.201242C0.149293 106 0.0994738 105.979 0.0627406 105.943C0.0260073 105.906 0.00537109 105.856 0.00537109 105.804C0.00537109 105.753 0.0260073 105.703 0.0627406 105.666C0.0994738 105.629 0.149293 105.609 0.201242 105.609H141.804C141.83 105.609 141.855 105.614 141.879 105.624C141.903 105.633 141.924 105.648 141.943 105.666C141.961 105.684 141.975 105.706 141.985 105.729C141.995 105.753 142 105.779 142 105.804Z" fill="#CCCCCC"/>
<path d="M51.5761 48.792L37.0081 46.4647C36.6261 46.3425 36.275 46.1391 35.979 45.8686C35.6831 45.5981 35.4492 45.2668 35.2936 44.8975C35.1379 44.5282 35.0641 44.1297 35.0772 43.7292C35.0903 43.3287 35.19 42.9358 35.3695 42.5774L36.0301 41.2576L35.7735 27.3914C35.7426 25.5877 36.1878 23.8077 37.0643 22.2305C37.9409 20.6532 39.2179 19.3343 40.7668 18.4065L42.1875 17.5581L42.9054 15.7372L49.5256 15.8985L49.5449 18.2867L51.9158 22.0626L51.9157 22.0782L51.7669 42.6299L51.1135 44.7509L52.1015 47.2178L51.5761 48.792Z" fill="#E6E6E6"/>
<path d="M46.8218 13.4729C50.1438 13.4729 52.8369 10.7832 52.8369 7.46522C52.8369 4.14726 50.1438 1.45752 46.8218 1.45752C43.4997 1.45752 40.8066 4.14726 40.8066 7.46522C40.8066 10.7832 43.4997 13.4729 46.8218 13.4729Z" fill="#FFB8B8"/>
<path d="M40.5582 8.77484C40.3788 8.01995 40.4611 6.95769 40.5625 6.1976C40.8283 4.20492 41.9363 2.31051 43.6197 1.18839C43.9388 0.946265 44.3181 0.795725 44.7166 0.752997C45.1149 0.736393 45.5465 0.949314 45.6688 1.32822C45.7691 1.07814 45.9197 0.851252 46.1112 0.661556C46.3027 0.47186 46.5312 0.323381 46.7824 0.225286C47.287 0.03218 47.8298 -0.0408483 48.3676 0.0119904C49.4101 0.0978114 50.4098 0.463908 51.2607 1.07143C52.1117 1.67894 52.782 2.50522 53.2007 3.46257C53.3614 3.84377 53.8102 2.43572 54.0137 2.7959C54.2008 3.17028 54.5271 3.45667 54.9229 3.59378C55.3218 3.70494 55.4838 5.34629 55.6408 4.96356C55.7626 5.24641 55.8107 5.55544 55.7807 5.86188C55.7507 6.16831 55.6436 6.46218 55.4693 6.71612C55.2949 6.97006 55.0591 7.17581 54.7837 7.3142C54.5083 7.4526 54.2024 7.51913 53.8943 7.50762C53.4883 7.49245 53.1001 7.34331 52.699 7.27911C51.2645 7.04955 49.7428 8.08846 49.4361 9.50677C49.3263 9.09661 49.1509 8.70685 48.9167 8.35255C48.7978 8.17633 48.6385 8.03101 48.452 7.92868C48.2656 7.82636 48.0573 7.76998 47.8446 7.76423C47.4365 7.77949 47.0778 8.04599 46.8129 8.35654C46.5481 8.66709 46.3492 9.02941 46.0825 9.33829C45.2997 10.2446 44.241 12.3582 43.1255 12.204C42.2452 12.0824 40.8031 9.80553 40.5582 8.77484Z" fill="#2F2E41"/>
<path d="M83.1824 35.2695C83.2245 34.9956 83.1681 34.7157 83.0233 34.4793C82.8785 34.243 82.6545 34.0655 82.3911 33.9784L66.1924 28.59C66.0372 28.5381 65.8727 28.5192 65.7097 28.5346L61.6495 28.9181L59.3198 29.1388L55.0207 29.5446C54.7612 29.5694 54.5172 29.6795 54.327 29.8577C54.1369 30.0359 54.0113 30.2721 53.97 30.5293L51.7872 44.1474C51.7459 44.413 51.7965 44.6848 51.9307 44.9178C52.0649 45.1508 52.2747 45.3311 52.5253 45.429L68.8931 51.7393C68.9699 51.769 69.0498 51.7905 69.1312 51.8031C69.2497 51.8223 69.3705 51.8232 69.4893 51.8058L80.0657 50.2402C80.3151 50.2041 80.5463 50.0887 80.7249 49.911C80.9035 49.7334 81.02 49.503 81.0571 49.254L83.1824 35.2695Z" fill="white"/>
<path d="M52.8965 44.4695L69.2642 50.7794C69.2881 50.7888 69.314 50.7919 69.3394 50.7882L79.9144 49.2228C79.9457 49.2185 79.9748 49.2041 79.9973 49.1819C80.0197 49.1596 80.0342 49.1306 80.0386 49.0993L82.1652 35.1147C82.1701 35.0805 82.1629 35.0457 82.1449 35.0163C82.1269 34.9869 82.0992 34.9646 82.0666 34.9533L81.9577 34.9165L65.8669 29.5661C65.8595 29.5635 65.8519 29.5617 65.8442 29.5606C65.8318 29.5583 65.819 29.5577 65.8064 29.5587L55.9034 30.4946L55.1176 30.5683C55.0853 30.5717 55.0551 30.5856 55.0315 30.6078C55.0079 30.63 54.9922 30.6593 54.9868 30.6912L52.8043 44.3088C52.799 44.3421 52.8052 44.3762 52.822 44.4054C52.8388 44.4346 52.865 44.4573 52.8965 44.4695Z" fill="#808180"/>
<path d="M55.9033 30.4946L65.8063 29.5587C65.8189 29.5577 65.8317 29.5583 65.8441 29.5606C65.8519 29.5617 65.8594 29.5635 65.8668 29.5661L81.9576 34.9165L77.7131 35.3652L76.1247 35.5324L71.6047 36.0093C71.5915 36.01 71.5783 36.0098 71.5651 36.0088C71.557 36.0064 71.549 36.004 71.5393 36.0014L55.9033 30.4946Z" fill="#2F2E41"/>
<path d="M52.525 45.4299L68.8927 51.7398C68.9697 51.7694 69.0498 51.7904 69.1314 51.8022C69.25 51.8218 69.3708 51.8233 69.4898 51.8067L80.0648 50.2413C80.3144 50.205 80.5456 50.0894 80.7243 49.9116C80.903 49.7339 81.0197 49.5034 81.0571 49.2543L83.182 35.2695C83.2134 35.0633 83.1897 34.8525 83.1131 34.6585C83.1024 34.6327 83.0916 34.6069 83.0791 34.5826C82.9948 34.4054 82.8665 34.2528 82.7065 34.1391C82.6101 34.07 82.5038 34.0159 82.3911 33.9786L82.3719 33.9718L66.1932 28.5899C66.1271 28.5688 66.0596 28.5524 65.9912 28.5409C65.8977 28.5276 65.803 28.5258 65.709 28.5354L61.6495 28.9176L59.32 29.1395L55.0202 29.545C54.8443 29.5614 54.6744 29.6174 54.5233 29.709C54.5117 29.7146 54.5005 29.7213 54.49 29.7289C54.4825 29.7338 54.4754 29.7392 54.4686 29.745C54.3367 29.835 54.2245 29.9508 54.1389 30.0854C54.0532 30.22 53.9959 30.3707 53.9704 30.5281L51.7862 44.1473C51.7449 44.4131 51.7956 44.685 51.9299 44.9182C52.0642 45.1514 52.2741 45.3319 52.525 45.4299ZM54.2602 30.5756C54.2867 30.4124 54.3592 30.2601 54.4692 30.1365C54.5025 30.0967 54.5398 30.0604 54.5804 30.0282C54.6915 29.9385 54.8228 29.8773 54.9629 29.85C54.9906 29.8443 55.0186 29.8403 55.0467 29.8382L62.2865 29.1551L65.7373 28.8271C65.7607 28.8244 65.7822 28.8248 65.8038 28.8235C65.856 28.8225 65.9083 28.8263 65.9598 28.8351C66.0071 28.8413 66.0537 28.8523 66.0988 28.8682L82.2967 34.2569C82.3095 34.2614 82.3207 34.2658 82.3334 34.2703C82.4807 34.325 82.6101 34.4191 82.7076 34.5422C82.7846 34.6364 82.8409 34.7458 82.8726 34.8633C82.9044 34.9807 82.911 35.1035 82.8921 35.2237L80.7653 49.2099C80.7374 49.3964 80.6502 49.5691 80.5166 49.7023C80.383 49.8356 80.21 49.9224 80.0232 49.9499L69.4466 51.5152C69.2953 51.5369 69.141 51.5193 68.9984 51.4642L52.6305 45.1559C52.4429 45.0821 52.286 44.9468 52.1856 44.7721C52.0851 44.5975 52.047 44.3939 52.0776 44.1949L54.2602 30.5756Z" fill="#3F3D56"/>
<path d="M54.4334 29.8193C54.4421 29.7945 54.4573 29.7726 54.4775 29.7558C54.4842 29.7505 54.4913 29.7456 54.4988 29.7413C54.5056 29.7387 54.5127 29.7344 54.5195 29.7317C54.5524 29.7186 54.5889 29.7179 54.6222 29.73L54.9629 29.85L71.6065 35.7139L75.5017 35.3029L77.6815 35.0732L82.2951 34.5854L82.7076 34.5422L82.7878 34.5334C82.8224 34.5302 82.857 34.5392 82.8856 34.5588C82.9142 34.5785 82.9351 34.6074 82.9446 34.6408C82.9468 34.6485 82.9482 34.6564 82.9489 34.6643C82.9523 34.696 82.9453 34.7279 82.929 34.7552C82.9126 34.7825 82.8879 34.8038 82.8584 34.8159C82.8453 34.8213 82.8316 34.825 82.8176 34.8269L82.2564 34.8856L77.7131 35.3653L76.1246 35.5324L71.6046 36.0094C71.5914 36.01 71.5782 36.0099 71.565 36.0089C71.557 36.0065 71.5489 36.004 71.5393 36.0015L54.5804 30.0282L54.5229 30.0079C54.5097 30.0035 54.4974 29.9968 54.4868 29.9879C54.4611 29.9691 54.4421 29.9426 54.4325 29.9123C54.4229 29.882 54.4232 29.8494 54.4334 29.8193Z" fill="#3F3D56"/>
<path d="M69.1761 51.845C69.1378 51.8389 69.1035 51.8179 69.0806 51.7867C69.0577 51.7554 69.0481 51.7164 69.0539 51.6781L71.4434 35.8412C71.4492 35.8026 71.4701 35.768 71.5015 35.7448C71.5329 35.7217 71.5722 35.712 71.6107 35.7178L71.6121 35.718C71.6504 35.7241 71.6847 35.7451 71.7076 35.7764C71.7305 35.8076 71.7401 35.8467 71.7343 35.885L69.3448 51.7219C69.339 51.7604 69.3181 51.795 69.2867 51.8182C69.2553 51.8413 69.216 51.8511 69.1774 51.8453L69.1761 51.845Z" fill="#3F3D56"/>
<path d="M75.2327 50.8404L73.6436 51.0079L75.5024 35.3024C75.5024 35.3024 77.6249 34.9186 77.6816 35.0725C77.7166 35.1644 75.2479 50.7397 75.2327 50.8404Z" fill="#3F3D56"/>
<path d="M54.5233 30.0076L54.4805 37.1699L67.1753 42.0011L71.7342 35.8849L54.5233 30.0076Z" fill="#3F3D56"/>
<path d="M82.7083 34.5424C82.6021 34.4092 82.4592 34.31 82.2973 34.257L66.0998 28.8684C66.0543 28.8532 66.0076 28.8418 65.9602 28.8345C65.9085 28.8256 65.8561 28.8217 65.8037 28.8228L65.83 28.6588L65.9921 28.5416L69.8385 25.7602L82.6839 29.692L82.7062 34.1392L82.7083 34.5424Z" fill="#3F3D56"/>
<path d="M55.1703 41.5054C55.1886 41.5071 55.2066 41.5109 55.224 41.5166L60.1938 43.1469C60.2561 43.1673 60.3076 43.2115 60.3372 43.2699C60.3667 43.3283 60.3719 43.396 60.3514 43.4581C60.331 43.5203 60.2867 43.5718 60.2283 43.6013C60.1699 43.6308 60.1021 43.6359 60.0398 43.6155L55.07 41.9853C55.0123 41.9663 54.9636 41.9268 54.9332 41.8743C54.9029 41.8218 54.8929 41.7599 54.9054 41.7005C54.9178 41.6411 54.9517 41.5884 55.0005 41.5524C55.0494 41.5164 55.1099 41.4997 55.1703 41.5054Z" fill="white"/>
<path d="M75.2223 71.5509C76.3131 71.5509 77.1974 70.6677 77.1974 69.5782C77.1974 68.4886 76.3131 67.6054 75.2223 67.6054C74.1314 67.6054 73.2471 68.4886 73.2471 69.5782C73.2471 70.6677 74.1314 71.5509 75.2223 71.5509Z" fill="#F2F2F2"/>
<path d="M24.8551 78.7843C25.9459 78.7843 26.8303 77.9011 26.8303 76.8116C26.8303 75.722 25.9459 74.8388 24.8551 74.8388C23.7642 74.8388 22.8799 75.722 22.8799 76.8116C22.8799 77.9011 23.7642 78.7843 24.8551 78.7843Z" fill="#F2F2F2"/>
<path d="M66.0047 13.5192C67.0956 13.5192 67.9799 12.636 67.9799 11.5465C67.9799 10.457 67.0956 9.57373 66.0047 9.57373C64.9139 9.57373 64.0295 10.457 64.0295 11.5465C64.0295 12.636 64.9139 13.5192 66.0047 13.5192Z" fill="#F2F2F2"/>
<path d="M69.2453 44.4068C68.9893 44.5179 68.712 44.5715 68.433 44.564C68.154 44.5565 67.88 44.488 67.6304 44.3632C67.3807 44.2385 67.1615 44.0607 66.9882 43.8422C66.8148 43.6237 66.6915 43.3699 66.627 43.0987L59.8765 42.4175L62.1035 39.6875L68.1725 40.7529C68.6359 40.6748 69.1118 40.7692 69.5102 41.0182C69.9085 41.2672 70.2016 41.6535 70.3338 42.1039C70.4661 42.5543 70.4283 43.0375 70.2277 43.4619C70.0271 43.8864 69.6775 44.2226 69.2453 44.4068Z" fill="#FFB8B8"/>
<path d="M65.0933 43.3238L49.3398 41.8741L49.3182 41.8493L37.8209 28.6916C37.0642 27.5338 36.7793 26.1309 37.0245 24.7702C37.2697 23.4095 38.0265 22.1938 39.1398 21.3722C39.7558 20.9187 40.461 20.6007 41.209 20.439C41.9569 20.2774 42.7307 20.2758 43.4793 20.4343C44.2279 20.5929 44.9344 20.908 45.5523 21.3589C46.1702 21.8098 46.6855 22.3863 47.0642 23.0505L54.1456 35.4697L65.2668 39.9325L65.0933 43.3238Z" fill="#E6E6E6"/>
<path d="M104.634 18.0205C104.243 15.1545 103.752 12.0773 101.728 10.0084C101.086 9.35193 100.317 8.83214 99.4684 8.48038C98.6197 8.12862 97.7083 7.95217 96.7894 7.96167C95.8705 7.97117 94.9631 8.16642 94.1218 8.53565C93.2805 8.90488 92.5228 9.44045 91.8943 10.1101C90.421 11.6798 89.7704 13.884 89.7108 16.0349C89.6513 18.1857 90.1309 20.3126 90.6629 22.3975C93.4786 22.4537 96.2733 21.9043 98.8576 20.7866C99.5039 20.5064 100.14 20.1897 100.822 20.0161C101.505 19.8426 101.992 20.2793 102.627 20.5839L102.976 19.9172C103.261 20.4476 104.145 20.2904 104.465 19.7803C104.786 19.2703 104.715 18.6172 104.634 18.0205Z" fill="#2F2E41"/>
<path d="M93.473 34.0176L81.9715 34.2633C81.7949 33.9583 81.5333 33.7112 81.2187 33.552C80.904 33.3929 80.5498 33.3284 80.1992 33.3666C79.8485 33.4048 79.5166 33.544 79.2437 33.7672C78.9708 33.9904 78.7687 34.288 78.6621 34.6238C78.5554 34.9596 78.5488 35.3191 78.643 35.6586C78.7372 35.9981 78.9282 36.3029 79.1927 36.536C79.4572 36.7691 79.7838 36.9203 80.1328 36.9714C80.4818 37.0224 80.8381 36.9711 81.1584 36.8236C82.6839 36.9101 94.618 38.6019 95.33 37.5116C96.0526 36.4051 99.9098 32.4998 99.9098 32.4998L96.9449 28.2841L93.473 34.0176Z" fill="#9E616A"/>
<path d="M96.2756 20.8561C99.2601 20.8561 101.679 18.4397 101.679 15.459C101.679 12.4782 99.2601 10.0618 96.2756 10.0618C93.2912 10.0618 90.8718 12.4782 90.8718 15.459C90.8718 18.4397 93.2912 20.8561 96.2756 20.8561Z" fill="#9E616A"/>
<path d="M104.931 25.8436C104.294 24.5778 103.985 23.014 102.627 22.6037C101.71 22.3265 98.0022 22.7418 97.1667 23.2096C95.7769 23.9877 97.0364 25.4458 96.2164 26.8102C95.3251 28.2935 92.9027 31.2702 92.0114 32.7535C91.3986 33.7732 93.4627 36.7663 93.1313 37.9086C92.8 39.0509 92.7841 40.333 93.3485 41.3802C93.8537 42.3175 93.1228 43.1466 93.6308 44.0824C94.1591 45.0555 94.8075 48.6941 94.3158 49.6863L93.9866 50.6727C97.2533 50.8644 100 46.9665 103.247 46.5559C104.053 46.4539 104.89 46.3207 105.555 45.8532C106.533 45.1646 106.92 43.9151 107.162 42.744C108.326 37.0196 107.541 31.071 104.931 25.8436Z" fill="#3F3D56"/>
<path d="M109.828 39.2093C109.373 37.9688 108.55 32.5452 108.55 32.5452L103.394 32.3942L105.914 38.6038L99.0358 48.2214C99.0358 48.2214 99.0486 48.2425 99.0717 48.2802C98.7101 48.2222 98.3393 48.2747 98.008 48.4306C97.6767 48.5866 97.4002 48.8388 97.2147 49.1543C97.0293 49.4698 96.9435 49.8338 96.9686 50.1988C96.9938 50.5637 97.1286 50.9126 97.3555 51.1998C97.5825 51.487 97.8909 51.699 98.2405 51.8082C98.5901 51.9174 98.9645 51.9187 99.3148 51.8118C99.6651 51.705 99.975 51.495 100.204 51.2094C100.433 50.9238 100.57 50.5758 100.597 50.211C100.623 50.2255 100.652 50.2307 100.681 50.2258C100.71 50.2209 100.736 50.2061 100.755 50.184C101.521 49.2247 110.283 40.4497 109.828 39.2093Z" fill="#9E616A"/>
<path d="M110.353 35.784C109.88 33.7891 109.403 31.7834 108.605 29.8945C107.807 28.0055 106.665 26.2214 105.058 24.9453C104.545 24.5373 103.971 24.1772 103.327 24.0503C102.683 23.9235 101.957 24.0654 101.505 24.5404C100.781 25.3005 100.999 26.5206 101.265 27.5354C102.047 30.5274 102.83 33.5195 103.612 36.5116C105.872 36.2723 108.132 36.0331 110.392 35.7938L110.353 35.784Z" fill="#3F3D56"/>
<path d="M102.897 16.2076C102.698 14.9019 102.49 13.5854 102.023 12.356C101.555 11.1266 100.802 9.97516 99.7207 9.27873C98.009 8.17611 95.793 8.38877 93.874 9.02302C92.3899 9.51353 90.9412 10.2591 89.8947 11.4576C88.8481 12.6562 88.2603 14.3664 88.6496 15.9335C90.6966 15.4505 92.7436 14.9675 94.7906 14.4844L94.5665 14.6426C95.2387 14.9773 95.8256 15.4606 96.2828 16.0557C96.74 16.6508 97.0555 17.3422 97.2052 18.0772C97.3516 18.8213 97.3305 19.5884 97.1436 20.3233C96.9567 21.0582 96.6086 21.7425 96.1245 22.3265C97.5206 21.8319 98.9166 21.3372 100.313 20.8426C101.174 20.5373 102.097 20.1855 102.608 19.4024C103.2 18.4945 103.062 17.2911 102.897 16.2076Z" fill="#2F2E41"/>
</g>
<defs>
<clipPath id="clip0_159_195">
<rect width="142" height="106" fill="white"/>
</clipPath>
</defs>
</svg>
