<svg width="293" height="200" viewBox="0 0 293 200" fill="none" xmlns="http://www.w3.org/2000/svg">
<path d="M0 198.5H293" stroke="black"/>
<path d="M109 113V198" stroke="black" stroke-linecap="round" stroke-linejoin="round"/>
<path d="M96 116V120.31C96 123.457 98.677 126 101.991 126H109" stroke="black" stroke-linecap="round" stroke-linejoin="round"/>
<path d="M116 140V144.337C116 146.369 114.369 148 112.374 148H109" stroke="black" stroke-linecap="round" stroke-linejoin="round"/>
<path d="M85.0296 104.477C88.6603 102.552 92.8687 102.44 96.516 104.751C96.516 104.751 101.224 93.966 110.206 95.081C118.575 96.115 119.765 106.352 119.765 106.352C119.765 106.352 125.902 101.84 131.381 104.201C131.476 104.234 131.573 104.282 131.654 104.332C139.029 107.791 136.425 119 128.295 119H88.7078C80.7552 118.983 78.0074 108.229 85.0296 104.477Z" fill="#DBD4CC"/>
<path opacity="0.3" d="M117.08 99C112.588 102.481 112.588 110.684 112.588 110.684C108.037 108.428 101.279 111.647 102.062 119H128.34C136.423 119 139.011 107.692 131.679 104.18C131.582 104.132 131.502 104.098 131.408 104.05C125.961 101.664 119.859 106.221 119.859 106.221C119.859 106.221 119.412 102.269 117.08 99Z" fill="#C2B09B"/>
<path d="M120 106C118.209 108.003 117 111 117 111" stroke="#C2B09B" stroke-linecap="round" stroke-linejoin="round"/>
<path d="M97 105C96.622 105.974 96.297 106.978 96 108" stroke="#C2B09B" stroke-linecap="round" stroke-linejoin="round"/>
<path d="M105.33 142.985C102.935 142.985 101 140.979 101 138.499C101 137.777 101.173 137.071 101.491 136.43C102.935 133.555 105.155 130.713 108.328 130.121C114.864 128.939 115.799 136.824 115.799 136.824C115.799 136.824 118.528 133.112 122.699 134.196C123.16 134.31 123.604 134.508 124.015 134.772C127.665 137.119 125.936 143 121.636 143L105.33 142.985Z" fill="#DBD4CC"/>
<path opacity="0.3" d="M124.073 134.967C123.673 134.71 123.243 134.516 122.796 134.405C118.748 133.347 116.099 136.971 116.099 136.971C116.099 136.971 115.745 133.973 113.928 132C113.928 132 111.234 134.469 111.388 139.681C107.293 139.359 107 143 107 143H121.78C125.937 142.986 127.615 137.259 124.073 134.967Z" fill="#C2B09B"/>
<path d="M116 137C115.488 137.718 115 139 115 139" stroke="#C2B09B" stroke-linecap="round" stroke-linejoin="round"/>
<path d="M209.549 147.356C211.692 147.356 213.429 145.616 213.429 143.471C213.429 141.325 211.692 139.586 209.549 139.586C207.406 139.586 205.669 141.325 205.669 143.471C205.669 145.616 207.406 147.356 209.549 147.356Z" fill="#E9A08A"/>
<path d="M209.298 165.25C209.224 165.017 209.199 164.77 209.226 164.527C209.253 164.283 209.331 164.048 209.455 163.836C209.579 163.625 209.747 163.442 209.946 163.3C210.146 163.158 210.373 163.06 210.613 163.012C210.689 162.997 210.766 162.988 210.844 162.984L214.93 156.416L211.197 152.862C211.055 152.726 210.94 152.563 210.861 152.383C210.781 152.203 210.738 152.008 210.734 151.811C210.73 151.614 210.765 151.419 210.837 151.235C210.909 151.052 211.016 150.884 211.153 150.743C211.29 150.601 211.454 150.488 211.635 150.41C211.815 150.332 212.01 150.291 212.206 150.289C212.403 150.286 212.599 150.323 212.781 150.397C212.964 150.471 213.13 150.58 213.27 150.718L218.424 155.807L218.434 155.82C218.594 156.063 218.671 156.351 218.654 156.641C218.637 156.931 218.527 157.208 218.34 157.431L212.614 164.212C212.631 164.267 212.646 164.322 212.657 164.378C212.705 164.618 212.702 164.866 212.647 165.105C212.593 165.344 212.488 165.569 212.341 165.765C212.194 165.961 212.007 166.123 211.792 166.242C211.578 166.36 211.341 166.432 211.097 166.453C211.048 166.457 210.999 166.459 210.95 166.459C210.583 166.458 210.225 166.34 209.929 166.123C209.632 165.906 209.411 165.6 209.298 165.25Z" fill="#E9A08A"/>
<path d="M203.16 197.54H201.223L200.302 190.06L203.16 190.061V197.54Z" fill="#E9A08A"/>
<path d="M203.732 199.499H197.33V199.341C197.33 199.011 197.395 198.684 197.521 198.379C197.647 198.074 197.832 197.797 198.065 197.564C198.298 197.331 198.575 197.146 198.879 197.019C199.184 196.893 199.51 196.828 199.839 196.828H203.732V199.499Z" fill="#2F2E41"/>
<path d="M222.408 194.859L220.743 195.851L216.13 189.896L218.586 188.432L222.408 194.859Z" fill="#E9A08A"/>
<path d="M218.4 199.529L218.319 199.393C217.979 198.82 217.879 198.135 218.043 197.489C218.206 196.843 218.62 196.289 219.191 195.948L222.536 193.954L223.901 196.249L218.4 199.529Z" fill="#2F2E41"/>
<path d="M200.057 194.246C198.76 178.95 197.988 164.739 202.731 158.942L202.767 158.897L210.748 162.094L210.761 162.123C210.788 162.181 213.443 168.028 212.824 171.96L214.792 181.028L221.211 191.791C221.263 191.878 221.295 191.974 221.307 192.075C221.318 192.175 221.308 192.276 221.278 192.372C221.247 192.469 221.196 192.557 221.129 192.632C221.062 192.707 220.979 192.767 220.887 192.808L218.098 194.037C217.94 194.105 217.763 194.115 217.599 194.064C217.436 194.012 217.296 193.904 217.205 193.757L210.223 182.356L206.279 173.611C206.258 173.563 206.221 173.524 206.175 173.5C206.129 173.475 206.077 173.466 206.025 173.474C205.974 173.483 205.927 173.508 205.891 173.545C205.855 173.583 205.833 173.632 205.827 173.684L203.641 194.262C203.623 194.437 203.541 194.599 203.41 194.716C203.279 194.834 203.11 194.899 202.934 194.898H200.766C200.588 194.897 200.417 194.83 200.286 194.709C200.155 194.589 200.073 194.424 200.057 194.246Z" fill="#2F2E41"/>
<path d="M202.758 159.063L202.72 159.045L202.714 159.003C202.416 156.914 202.769 154.592 203.763 152.103C204.253 150.884 205.163 149.883 206.329 149.281C207.495 148.678 208.837 148.516 210.113 148.822C210.848 149.003 211.537 149.335 212.137 149.797C212.736 150.259 213.234 150.84 213.598 151.505C213.957 152.163 214.175 152.888 214.24 153.635C214.304 154.381 214.213 155.133 213.972 155.843C212.719 159.513 211.093 162.946 211.077 162.981L211.043 163.052L202.758 159.063Z" fill="#357960"/>
<path d="M197.015 167.729C196.96 167.307 197.058 166.879 197.292 166.524C197.525 166.168 197.878 165.908 198.287 165.791L205.75 151.443C205.848 151.282 205.977 151.142 206.129 151.031C206.282 150.92 206.455 150.84 206.638 150.796C206.821 150.752 207.011 150.745 207.197 150.775C207.383 150.805 207.562 150.871 207.722 150.97C207.883 151.069 208.022 151.199 208.132 151.353C208.242 151.506 208.321 151.679 208.363 151.863C208.406 152.047 208.412 152.237 208.382 152.423C208.351 152.609 208.283 152.788 208.183 152.948L200.544 167.196C200.56 167.282 200.57 167.37 200.572 167.458C200.579 167.699 200.537 167.939 200.448 168.163C200.36 168.387 200.227 168.591 200.058 168.763C199.889 168.934 199.687 169.07 199.465 169.161C199.242 169.253 199.003 169.298 198.762 169.295C198.499 169.291 198.239 169.229 198.002 169.113C197.765 168.996 197.557 168.829 197.392 168.623C197.185 168.366 197.055 168.056 197.015 167.729Z" fill="#E9A08A"/>
<path d="M204.845 141.276H211.006V138.587C209.653 138.049 208.33 137.592 207.531 138.587C206.818 138.587 206.135 138.871 205.632 139.375C205.128 139.879 204.845 140.563 204.845 141.276Z" fill="#2F2E41"/>
<path d="M211.347 138.113C215.03 138.113 216.06 142.735 216.06 145.343C216.06 146.798 215.404 147.318 214.372 147.494L214.007 145.547L213.153 147.578C212.863 147.579 212.559 147.573 212.243 147.568L211.954 146.971L211.308 147.557C208.723 147.561 206.633 147.938 206.633 145.343C206.633 142.735 207.537 138.113 211.347 138.113Z" fill="#2F2E41"/>
<path d="M180 90C180.429 85.291 183.901 83.12 187.36 83.663C187.36 83.663 188.332 78.032 194.934 78.688C194.934 78.688 196.879 71 204.895 71C213.013 71 216.043 79.989 216.484 82.691C216.484 82.691 222.973 83.018 224.059 90H180Z" fill="#AB9F90"/>
<path d="M184.982 78.039C182.331 70.601 175.459 69.321 168.842 71.222C168.842 71.222 164.2 57.2031 148.865 61.883C148.865 61.883 144.423 53 134.242 53C121.558 53 119.437 66.086 119.437 66.086C119.437 66.086 104.998 64.149 102 78.039H184.982Z" fill="#C2B09B"/>
<path opacity="0.3" d="M122.672 78.039C125.232 64.698 139.123 69.449 139.123 69.449C139.123 69.449 139.123 60.858 144.843 56.9657C146.47 58.3551 147.841 60.018 148.883 61.883C164.218 57.2031 168.86 71.222 168.86 71.222C175.495 69.303 182.349 70.601 185 78.039H122.672Z" fill="#767676"/>
<path d="M168.842 71.222C167.418 71.716 166.083 72.429 164.876 73.343" stroke="#767676" stroke-linecap="round" stroke-linejoin="round"/>
<path d="M148.865 61.8831C149.194 62.4851 149.486 63.1261 149.705 63.7831" stroke="#767676" stroke-linecap="round" stroke-linejoin="round"/>
<path d="M119.436 66.0861C120.662 66.2681 121.832 66.7631 122.818 67.4931" stroke="#767676" stroke-linecap="round" stroke-linejoin="round"/>
<path d="M19 91.955C19 79.355 29.2124 69.177 41.7776 69.177C41.9525 69.177 42.1653 69.177 42.3403 69.177C46.1652 56.9969 59.1501 50.2246 71.3304 54.0845C80.9453 57.1019 87.5077 66.052 87.5077 76.125C87.5077 76.194 87.5077 76.229 87.5077 76.299V80.827C96.881 80.897 104.39 88.585 104.321 97.955C104.251 107.185 96.776 114.66 87.5077 114.767H41.6377C29.1075 114.66 19 104.482 19 91.955Z" fill="#357960"/>
<path opacity="0.3" d="M27.0026 74.652C33.6 82.722 43.2877 89.672 55.0803 93.92C72.9426 100.377 91.0877 99.077 103.233 91.742C103.968 93.672 104.355 95.745 104.321 97.92C104.251 107.15 96.776 114.625 87.5077 114.732H41.6377C29.1075 114.66 19 104.482 19 91.955C19 85.04 22.1252 78.827 27.0026 74.652Z" fill="#474747"/>
<path d="M67.6806 101.465L61.0103 105.325" stroke="#0F0F0F" stroke-linecap="round" stroke-linejoin="round"/>
<path d="M87.5078 80.827H82.1377" stroke="#0F0F0F" stroke-linecap="round" stroke-linejoin="round"/>
<path d="M42.375 69.177C50.2727 69.387 54.8352 72.897 54.8352 72.897" stroke="#0F0F0F" stroke-linecap="round" stroke-linejoin="round"/>
<path d="M60.8701 90.41V198.26" stroke="#0F0F0F" stroke-linecap="round" stroke-linejoin="round"/>
<path d="M54.2378 158.812L60.8702 162.672" stroke="#0F0F0F" stroke-linecap="round" stroke-linejoin="round"/>
<path d="M116 197.901C116 197.901 114.658 171.199 88.9435 172.187C88.9435 172.187 83.6743 158 67.1824 158C46.4076 158 41.4684 180.749 41.4684 180.749C41.4684 180.749 24.9764 179.761 23 197.901H116Z" fill="#357960"/>
<path opacity="0.3" d="M104.777 176.291C101.559 189.034 80.5586 185.209 80.5586 185.209C60.1139 199.624 33.9188 194.051 30.6502 183.815C27.0796 186.198 23.8353 190.428 23 197.875H116C116 197.901 115.265 183.563 104.777 176.291Z" fill="#474747"/>
<path d="M41.4683 180.749C40.8344 183.03 40.2769 186.145 40.2769 186.145M88.9434 172.187C90.0323 174.848 90.7931 177.634 91.1977 180.498" stroke="#0F0F0F" stroke-linecap="round" stroke-linejoin="round"/>
<path d="M62.9087 185.075C67.3743 183.205 69.7404 178.695 68.1947 175.005C66.649 171.313 61.7751 169.836 57.3114 171.706C52.8458 173.576 50.4796 178.085 52.0254 181.777C53.5692 185.467 58.4413 186.943 62.9087 185.075Z" fill="#F4BD1A"/>
<path d="M60.7851 180.004C61.8572 179.554 62.4222 178.467 62.0493 177.578C61.6764 176.687 60.5054 176.329 59.4352 176.778C58.3631 177.225 57.7981 178.312 58.171 179.202C58.5439 180.093 59.713 180.451 60.7851 180.004Z" fill="#2D2308"/>
</svg>
