<svg width="273" height="200" viewBox="0 0 273 200" fill="none" xmlns="http://www.w3.org/2000/svg">
<g clip-path="url(#clip0_159_289)">
<path d="M220.935 129.078C221.179 129.1 221.424 129.047 221.637 128.926C221.85 128.805 222.021 128.622 222.126 128.401C222.231 128.181 222.265 127.933 222.224 127.692C222.183 127.451 222.069 127.229 221.897 127.055C221.872 126.934 221.855 126.848 221.83 126.727C221.842 126.702 221.854 126.676 221.866 126.651C222.14 126.082 222.576 125.607 223.12 125.284C223.663 124.962 224.29 124.807 224.922 124.838C225.554 124.87 226.163 125.087 226.671 125.462C227.18 125.837 227.565 126.354 227.78 126.947C228.639 129.314 229.762 131.697 229.951 134.167C230.034 135.258 229.926 136.356 229.632 137.411C232.135 132.576 233.566 127.262 233.828 121.828C233.892 120.464 233.879 119.098 233.79 117.736C233.717 116.619 233.594 115.508 233.422 114.403C232.481 108.404 230.127 102.713 226.551 97.7976C224.76 96.713 223.346 95.1073 222.499 93.1968C222.191 92.51 221.986 91.7824 221.888 91.0368C222.094 91.0735 222.304 91.1002 222.51 91.1234C222.575 91.1298 222.642 91.1363 222.707 91.1427L222.731 91.1449C222.959 91.1657 223.187 91.1205 223.389 91.0148C223.591 90.9092 223.759 90.7475 223.871 90.5493C223.983 90.3511 224.035 90.1248 224.021 89.8977C224.007 89.6705 223.928 89.4523 223.793 89.2691C223.708 89.1552 223.624 89.0413 223.539 88.9275C223.411 88.7518 223.28 88.5794 223.152 88.4037C223.137 88.3869 223.123 88.3692 223.11 88.3508C222.962 88.1505 222.815 87.9536 222.668 87.7533C222.974 87.3251 223.375 86.9731 223.84 86.7249C225.449 85.883 227.581 86.6167 228.647 88.0816C229.716 89.5467 229.837 91.5381 229.361 93.2844C228.903 94.768 228.195 96.1631 227.267 97.4099C227.347 97.5222 227.431 97.6313 227.511 97.7437C228.971 99.8061 230.225 102.006 231.254 104.312C231.096 101.775 231.545 99.2364 232.563 96.9055C233.586 94.7366 235.398 92.954 237.005 91.1125C238.936 88.9006 242.629 90.0764 242.814 93.0025C242.816 93.0308 242.818 93.0591 242.82 93.0874C242.588 93.2037 242.361 93.3281 242.138 93.4604C241.859 93.6285 241.636 93.8769 241.501 94.1731C241.365 94.4693 241.322 94.7994 241.378 95.1202C241.434 95.441 241.585 95.7375 241.813 95.9709C242.041 96.2044 242.334 96.3638 242.654 96.4283L242.687 96.4349C242.569 97.2412 242.389 98.0374 242.15 98.8166C241.461 100.991 240.328 103 238.823 104.717C237.318 106.435 235.473 107.824 233.404 108.798C233.269 108.859 233.136 108.921 233.001 108.979C233.99 112.252 234.549 115.64 234.662 119.056C234.722 121.072 234.619 123.089 234.353 125.087L234.367 125.017C234.906 122.805 236.194 120.847 238.014 119.473C240.716 117.463 244.429 116.849 247.317 115.267C247.624 115.09 247.976 115.004 248.33 115.02C248.685 115.036 249.027 115.152 249.318 115.355C249.608 115.559 249.834 115.84 249.969 116.168C250.104 116.495 250.143 116.854 250.08 117.202C250.075 117.226 250.07 117.251 250.065 117.276C249.638 117.426 249.222 117.603 248.817 117.805C248.586 117.922 248.359 118.046 248.136 118.178C247.856 118.346 247.634 118.595 247.498 118.891C247.363 119.187 247.32 119.517 247.376 119.838C247.431 120.159 247.583 120.455 247.811 120.689C248.039 120.922 248.332 121.082 248.652 121.146L248.685 121.153C248.708 121.157 248.729 121.162 248.752 121.166C247.958 122.835 246.881 124.354 245.569 125.659C243.95 127.236 242.025 128.467 239.912 129.277C237.798 130.086 235.541 130.457 233.279 130.367L233.275 130.367C232.537 132.997 231.527 135.544 230.26 137.966L220.779 137.526C220.75 137.419 220.724 137.31 220.698 137.203C221.573 137.299 222.457 137.287 223.329 137.169C222.666 136.276 222.003 135.376 221.34 134.483C221.325 134.467 221.311 134.449 221.298 134.431C220.962 133.974 220.622 133.52 220.286 133.063L220.285 133.063C220.329 131.712 220.548 130.373 220.935 129.078L220.935 129.078Z" fill="#357960"/>
<path d="M29.8883 47.3626C29.6461 47.4001 29.3982 47.3625 29.1782 47.255C28.9581 47.1474 28.7766 46.975 28.6582 46.7611C28.5397 46.5473 28.4901 46.3023 28.516 46.0594C28.5419 45.8165 28.6421 45.5874 28.8031 45.4032C28.8201 45.2812 28.8323 45.1936 28.8493 45.0717C28.8357 45.047 28.8221 45.0224 28.8085 44.9978C28.5003 44.4471 28.0357 43.9995 27.473 43.7111C26.9104 43.4228 26.2748 43.3066 25.6461 43.3771C25.0174 43.4476 24.4236 43.7017 23.9394 44.1075C23.4551 44.5132 23.1019 45.0525 22.9242 45.6577C22.2137 48.0731 21.2405 50.5209 21.2054 52.9972C21.1903 54.0917 21.3659 55.1805 21.7243 56.2152C18.9264 51.5442 17.169 46.3282 16.5713 40.9208C16.4227 39.5638 16.3503 38.1995 16.3546 36.8344C16.359 35.7152 16.4129 34.5986 16.516 33.4846C17.0826 27.4395 19.0799 21.6146 22.344 16.4882C24.0643 15.2954 25.3765 13.6056 26.1036 11.6467C26.3676 10.9422 26.5279 10.2034 26.5795 9.45318C26.3761 9.50251 26.1683 9.54209 25.9634 9.57793C25.8995 9.58825 25.8322 9.59897 25.7683 9.60932L25.7442 9.61303C25.5186 9.64775 25.2877 9.61673 25.0793 9.5237C24.871 9.43068 24.694 9.27961 24.5698 9.08869C24.4456 8.89777 24.3794 8.67513 24.3792 8.44759C24.379 8.22004 24.4448 7.99729 24.5686 7.80614C24.6458 7.68723 24.723 7.56836 24.8003 7.44954C24.9172 7.26632 25.0378 7.08612 25.1547 6.90293C25.1686 6.88522 25.1814 6.86674 25.1932 6.84757C25.3278 6.63856 25.4627 6.43294 25.5974 6.22393C25.2654 5.81541 24.8433 5.48884 24.3639 5.26965C22.7054 4.52856 20.6231 5.39208 19.6502 6.91981C18.6739 8.44788 18.6761 10.443 19.2601 12.1566C19.809 13.6092 20.6019 14.958 21.605 16.1453C21.5322 16.2624 21.4557 16.3764 21.3829 16.4935C20.0534 18.6419 18.9383 20.915 18.0538 23.2802C18.0542 20.7379 17.449 18.2318 16.288 15.968C15.1323 13.8662 13.2142 12.1986 11.4955 10.4596C9.43106 8.37086 5.81812 9.77177 5.81455 12.7037C5.81452 12.732 5.81456 12.7604 5.81467 12.7888C6.05288 12.8906 6.28719 13.0008 6.51761 13.1191C6.80728 13.2697 7.04457 13.5039 7.19838 13.7912C7.35219 14.0784 7.41535 14.4053 7.37959 14.7289C7.34383 15.0525 7.21081 15.3578 6.99797 15.6048C6.78513 15.8518 6.50238 16.029 6.18679 16.1131L6.15447 16.1217C6.32241 16.9192 6.55093 17.7029 6.83806 18.4658C7.66101 20.5935 8.91612 22.5288 10.5247 24.1504C12.1333 25.772 14.0606 27.0449 16.1859 27.8893C16.3252 27.9424 16.4611 27.9959 16.6 28.0456C15.8151 31.3733 15.4677 34.7886 15.5665 38.2056C15.6313 40.2209 15.8594 42.2276 16.2488 44.2062L16.2309 44.1365C15.5556 41.9626 14.1482 40.0876 12.2464 38.8282C9.42524 36.9887 5.68115 36.6045 2.70122 35.2031C2.38356 35.0453 2.02724 34.9813 1.67429 35.0187C1.32134 35.0561 0.986474 35.1933 0.709198 35.4142C0.431923 35.635 0.223797 35.9303 0.109371 36.2651C-0.00505612 36.6 -0.0210133 36.9605 0.0633831 37.3041C0.0698342 37.3285 0.0763528 37.3529 0.0829341 37.3773C0.517876 37.5012 0.944647 37.652 1.36077 37.8288C1.59899 37.9307 1.8333 38.0408 2.06372 38.1592C2.35339 38.3097 2.59067 38.5439 2.74448 38.8312C2.89829 39.1184 2.96145 39.4453 2.92569 39.7689C2.88993 40.0925 2.75692 40.3979 2.54407 40.6449C2.33123 40.8919 2.04849 41.069 1.73289 41.1531L1.70055 41.1617C1.67725 41.1677 1.65731 41.1733 1.63405 41.1792C2.5305 42.7955 3.69941 44.246 5.0896 45.4671C6.80326 46.9418 8.80111 48.0522 10.9606 48.7301C13.1202 49.4079 15.3959 49.6391 17.6482 49.4093L17.6516 49.409C18.5514 51.9888 19.7178 54.4686 21.1319 56.8081L30.5683 55.7852C30.5907 55.677 30.6094 55.5658 30.6284 55.458C29.7609 55.6074 28.8784 55.6505 28.0004 55.5861C28.6071 54.654 29.213 53.7151 29.8197 52.783C29.8336 52.7653 29.8464 52.7469 29.8581 52.7277C30.1655 52.251 30.4765 51.7773 30.7838 51.3006L30.7839 51.3C30.6563 49.9548 30.3554 48.6315 29.8886 47.3628L29.8883 47.3626Z" fill="#F2F2F2"/>
<path d="M160.26 43.8774C160.727 44.0055 161.16 44.2341 161.529 44.5471C161.898 44.86 162.193 45.2498 162.394 45.6889C162.596 46.1281 162.698 46.6058 162.694 47.0886C162.69 47.5714 162.58 48.0474 162.371 48.4832L167.435 54.0941L164.764 57.9927L157.725 49.9689C157.014 49.5712 156.474 48.9273 156.207 48.1592C155.94 47.391 155.965 46.552 156.278 45.8012C156.59 45.0503 157.168 44.4398 157.902 44.0852C158.636 43.7307 159.475 43.6567 160.26 43.8774Z" fill="#A0616A"/>
<path d="M207.666 57.6551C207.209 56.9145 206.611 56.2711 205.904 55.7617C205.198 55.2523 204.397 54.8869 203.549 54.6865C202.7 54.4861 201.82 54.4546 200.959 54.5939C200.099 54.7331 199.274 55.0404 198.532 55.498L181.879 65.7776L163.915 50.5587L159.445 54.7061L179.29 80.3677L205.084 66.9666C204.482 67.2794 208.393 58.835 207.666 57.6551Z" fill="#CCCCCC"/>
<path d="M174.675 91.8354C174.676 100.033 173.057 108.15 169.911 115.724C166.764 123.297 162.151 130.179 156.335 135.975C150.519 141.771 143.614 146.369 136.015 149.505C128.416 152.641 120.271 154.255 112.046 154.253C77.4579 154.253 49.4177 126.307 49.4177 91.8354C49.4118 85.1301 50.4903 78.4676 52.6118 72.1044C56.777 59.6771 64.7566 48.8692 75.4221 41.2089C86.0877 33.5487 98.8996 29.4238 112.046 29.4176C123.384 29.4137 134.51 32.4784 144.237 38.2846C153.964 44.0908 161.926 52.4205 167.274 62.3846C168.6 64.8429 169.757 67.3883 170.736 70.003C170.872 70.3671 171.004 70.7312 171.133 71.0988V71.1022C171.707 72.7181 172.212 74.3641 172.65 76.0402C173.998 81.1975 174.679 86.5057 174.675 91.8354Z" fill="#3F3D56"/>
<path d="M105.194 49.7228C102.38 48.2059 99.2547 47.3496 96.0577 47.2193C92.8608 47.0889 89.6761 47.6879 86.7467 48.9706C84.1674 50.0893 81.4515 52.0962 80.5911 55.7203C84.071 53.6734 88.5758 56.9074 89.4713 62.0955L89.2623 62.1529C88.7893 65.7464 89.8451 69.6587 91.8893 71.8869C92.1577 69.5724 93.6846 67.9972 95.1865 67.0132C96.6884 66.0293 98.3499 65.3145 99.4962 63.6231C100.855 61.618 101.2 58.6876 101.74 56.0143C102.28 53.341 103.304 50.4677 105.194 49.7228Z" fill="white"/>
<path d="M85.7144 80.3019C84.7506 81.7444 83.4632 82.6495 82.3081 83.7765C81.1565 84.907 80.0604 86.4327 79.8308 88.3919C79.6847 89.6472 79.9108 90.9233 79.8795 92.1925C79.8482 93.4616 79.4237 94.8903 78.5574 95.2059C77.1899 95.6983 76.1461 93.1669 74.7405 92.99C73.6236 92.8513 72.6181 94.6025 72.9417 96.1213C73.2653 97.6402 74.7857 98.3129 75.6591 97.3211C76.4489 98.6423 75.8922 101.038 74.7057 101.444C74.5804 102.276 74.4552 103.105 74.3334 103.937C71.3342 101.846 68.3037 99.7208 65.7533 96.6588C62.9169 93.2823 61.1576 89.138 60.7013 84.7578C60.3708 81.2382 60.8614 77.2122 59.24 74.504C57.9422 72.3367 55.7154 71.8581 53.7113 71.9934C53.346 72.0177 52.9772 72.0593 52.6118 72.1044C53.7937 68.5665 55.2948 65.1427 57.0967 61.8748C57.5044 61.7004 57.8833 61.4653 58.2205 61.1778C60.0855 59.6 60.9136 56.4063 62.4271 54.1974C62.5245 54.0552 62.6254 53.9165 62.7298 53.7813C64.2781 51.7666 66.3518 50.7297 68.3559 49.7657C72.7921 47.6193 77.357 45.445 82.0402 45.7432L80.7076 45.8716C79.1524 50.2131 77.5959 54.5546 76.0383 58.8961C75.8017 59.5618 75.5628 60.2288 75.3216 60.8969C74.4378 63.3658 73.5262 65.9944 73.6619 68.7581C73.7419 70.3948 74.3125 72.1425 75.3981 72.7043C76.4106 73.2244 77.517 72.5864 78.4947 71.9552C78.9088 71.6917 79.3193 71.4281 79.7334 71.1611C81.2191 70.2075 82.8648 69.2297 84.434 69.8677C85.871 70.4503 86.9321 72.3956 87.134 74.4936C87.319 76.5329 86.8197 78.5758 85.7144 80.3019Z" fill="white"/>
<path d="M94.5505 109.942C90.2114 107.28 85.8723 104.617 81.5332 101.954L81.6069 101.765C78.909 102.789 77.789 107.569 78.2348 111.477C78.6807 115.386 80.1925 118.88 80.9562 122.688C81.986 127.9 81.5973 133.292 79.8305 138.303C85.5362 131.922 90.5856 124.988 94.9031 117.603C95.5063 116.673 95.9659 115.657 96.2665 114.59C96.5422 113.456 96.4998 112.091 95.9478 111.181C95.5926 110.659 95.1124 110.233 94.5505 109.942Z" fill="white"/>
<path d="M77.4257 61.5009C76.9649 62.5334 76.7876 63.9101 77.2058 64.9784C77.6328 66.0694 78.5355 66.5625 79.3666 66.973L81.7642 68.1574C82.5618 68.5515 83.4215 68.9495 84.2346 68.6253C85.2154 68.2343 85.8953 66.7019 85.7194 65.2794C85.5322 63.7656 84.5748 62.7243 83.6893 61.8376C82.4502 60.5967 81.2111 59.3558 79.9719 58.1149L79.2736 58.9673C78.5182 59.7016 77.8934 60.5583 77.4257 61.5009Z" fill="white"/>
<path d="M161.822 77.6838C162.9 77.937 163.979 78.1901 165.058 78.4432C164.87 82.0739 163.064 85.4341 160.642 86.6512C159.633 87.1575 158.51 87.3447 157.674 88.2914C156.919 89.1514 156.537 90.4898 156.185 91.7694C155.569 94.0026 154.954 96.2358 154.338 98.4689C153.677 100.875 152.828 103.549 151.109 104.416C149.634 105.162 147.946 104.25 146.812 102.72C145.678 101.191 144.985 99.1347 144.314 97.1304C144.355 99.315 143.336 101.458 141.892 102.217C140.445 102.977 138.684 102.29 137.717 100.595C137.021 99.3775 136.732 97.7719 136.05 96.5375C135.368 95.303 133.938 94.5956 133.194 95.7538C132.703 96.5236 132.766 97.7026 132.522 98.6805C132.143 100.199 130.995 101.153 129.857 101.236C128.723 101.319 127.616 100.667 126.666 99.7832C124.708 97.9522 123.264 95.0464 122.703 91.818C122.456 90.3789 122.387 88.8115 122.815 87.4626C123.243 86.1137 124.276 85.0734 125.303 85.33C125.978 83.9082 124.645 82.0219 123.445 82.1883C122.241 82.3547 121.298 83.6412 120.31 84.6295C119.325 85.6178 117.947 86.3356 116.956 85.3543C116.963 86.2662 116.218 86.8696 115.574 86.7933C114.934 86.7205 114.363 86.2073 113.775 85.8432C111.503 84.4318 108.619 85.3681 107.005 88.0382C108.014 83.7591 109.492 78.8489 112.592 77.8433C113.859 77.4307 115.24 77.7705 116.437 77.0561C118.556 75.7905 118.984 71.0086 117.154 69.0355C117.387 70.901 117.342 73.0787 116.354 74.3548C115.366 75.631 113.292 74.7987 113.417 72.9123C113.132 74.2127 111.712 74.4103 111.058 73.4116C110.4 72.413 110.456 70.7797 110.922 69.5868C111.389 68.3939 112.182 67.5374 112.951 66.7156C114.604 64.9506 116.281 63.1647 118.194 62.055C120.111 60.9454 122.324 60.5709 124.245 61.6737C125.257 62.2562 126.148 63.2272 127.181 63.7404C128.215 64.257 129.526 64.1912 130.212 62.9844C130.981 61.6389 130.619 59.6416 130.904 57.9598C131.416 54.988 134.398 53.5975 136.05 55.5601C134.815 55.2446 133.538 56.701 133.385 58.4661C133.229 60.2311 134.123 62.0135 135.32 62.5475C137.331 63.4352 139.3 61.202 140.821 59.1353C142.407 56.9715 143.996 54.8088 145.587 52.6473C145.841 52.2793 146.126 51.9336 146.44 51.614C146.938 51.1299 147.602 50.8526 148.298 50.8385C148.994 50.8243 149.669 51.0743 150.187 51.5377C151.794 52.845 152.549 55.5255 153.868 57.3703C155.782 60.0508 158.645 60.7027 161.31 61.2228C163.297 61.6077 165.285 61.995 167.274 62.3845C168.6 64.8429 169.757 67.3882 170.736 70.003C167.368 71.4282 164.261 74.0948 161.822 77.6838Z" fill="white"/>
<path d="M168.245 119.407C166.754 122.423 165.02 125.314 163.06 128.051C161.808 127.517 160.461 128.471 159.289 129.366C158.064 130.302 156.592 131.214 155.336 130.361C154.052 129.487 153.638 127.042 154.045 125.104C154.452 123.169 155.468 121.629 156.453 120.166C157.497 118.612 158.614 117 160.065 116.397C161.519 115.793 163.387 116.646 163.812 118.706L164.842 118.671C164.264 117.881 164.567 116.244 165.343 115.956C166.237 115.62 167.013 116.844 167.542 117.926C167.778 118.415 168.018 118.907 168.245 119.407Z" fill="white"/>
<path d="M128.801 104.76C126.587 104.898 124.834 102.182 123.668 99.5105C122.503 96.8385 121.44 93.783 119.443 92.423C118.301 91.6459 117 91.5392 115.762 91.1627C114.524 90.7861 113.229 90.0069 112.637 88.4201L111.233 87.8547C109.378 88.894 107.499 89.9522 105.901 91.6435C104.109 93.5409 102.993 95.9732 102.724 98.5653C102.456 101.367 103.447 104.49 105.297 105.543C106.76 106.374 108.463 105.85 109.944 106.611C111.795 107.562 112.894 110.325 113.31 113.053C113.726 115.781 113.62 118.615 113.918 121.374C114.215 124.133 115.035 127.004 116.733 128.417C118.857 130.186 121.974 128.716 122.927 125.496C123.394 123.916 123.378 122.134 123.727 120.494C124.343 117.606 126.005 115.464 127.322 113.095C128.64 110.726 129.677 107.509 128.801 104.76Z" fill="white"/>
<path d="M106.926 76.3832C107.133 76.5726 107.325 76.7764 107.503 76.9931C107.686 77.3086 107.78 77.668 107.774 78.0326C107.768 78.3973 107.662 78.7533 107.467 79.0624C107.734 79.0472 107.995 78.9771 108.233 78.8565C108.471 78.7359 108.681 78.5674 108.851 78.3617C109.255 77.9031 109.61 77.4041 109.911 76.8727C110.137 76.5058 110.377 76.0097 110.224 75.5739C110.119 75.2764 109.872 75.1495 109.699 74.9259C109.424 74.5713 109.356 74.0081 109.214 73.5215C108.906 72.4704 108.171 71.6975 107.372 71.587L107.483 71.6082C107.149 71.7221 106.916 72.2502 106.99 72.7254C107.057 73.1581 107.336 73.5173 107.308 73.9587C107.268 74.5933 106.632 74.8911 106.593 75.5258C106.587 75.8442 106.706 76.1522 106.926 76.3832Z" fill="white"/>
<path d="M103.134 65.5988C103.137 65.5979 103.14 65.5977 103.143 65.5969C103.212 65.535 103.275 65.468 103.332 65.3964L103.134 65.5988Z" fill="#E6E6E6"/>
<path d="M103.797 68.5776C104.287 68.264 104.56 67.3964 104.398 66.6704C104.237 65.9488 103.668 65.4636 103.143 65.5969C102.991 65.7507 102.802 65.8635 102.594 65.9246C102.386 65.9856 102.166 65.9929 101.954 65.9458C101.629 65.8626 101.273 65.6481 100.992 65.8918C100.831 66.0738 100.718 66.2931 100.664 66.5297C100.56 66.8485 100.455 67.1673 100.351 67.486C100.302 67.6001 100.289 67.7267 100.314 67.8484C100.334 67.8972 100.366 67.94 100.408 67.9728C100.449 68.0055 100.498 68.0272 100.55 68.0355C101.176 68.2192 101.801 68.4029 102.426 68.5866C102.881 68.7204 103.373 68.8494 103.797 68.5776Z" fill="white"/>
<path d="M150.992 109.704C150.703 109.232 150.414 108.761 150.125 108.289C149.841 107.743 149.453 107.257 148.983 106.859C148.879 106.773 148.759 106.708 148.63 106.669C148.502 106.629 148.366 106.616 148.232 106.629C148.097 106.642 147.967 106.682 147.849 106.747C147.73 106.811 147.626 106.898 147.542 107.003L147.577 107.273C148.235 108.096 148.932 109.011 149.099 110.234C149.165 110.715 149.142 111.214 149.2 111.698C149.258 112.182 149.422 112.684 149.736 112.893C150.191 113.196 150.725 112.749 151.049 112.204C151.338 111.756 151.468 111.224 151.417 110.694C151.345 110.338 151.2 110.001 150.992 109.704Z" fill="white"/>
<path d="M163.853 91.6954C163.936 91.1492 164.02 90.603 164.104 90.0568C164.239 89.4569 164.256 88.8363 164.153 88.2299C164.13 88.0974 164.08 87.971 164.007 87.8579C163.934 87.7449 163.839 87.6475 163.728 87.5716C163.616 87.4957 163.491 87.4428 163.359 87.4159C163.226 87.389 163.09 87.3887 162.958 87.4151L162.811 87.6437C162.783 88.6966 162.725 89.8438 162.063 90.8862C161.802 91.2972 161.462 91.664 161.193 92.0714C160.925 92.4787 160.726 92.9681 160.831 93.3289C160.983 93.8528 161.681 93.8539 162.281 93.6447C162.792 93.488 163.235 93.1645 163.538 92.7264C163.713 92.4078 163.82 92.0569 163.853 91.6954Z" fill="#E6E6E6"/>
<path d="M155.525 110.317C155.667 109.913 155.463 109.448 155.42 109.001C155.399 108.423 155.553 107.852 155.861 107.362C156.167 106.9 156.399 106.393 156.548 105.86C156.611 105.617 156.6 105.361 156.515 105.124C156.42 104.91 156.188 104.812 156.055 104.982L156.34 105.165C155.955 105.096 155.561 105.115 155.185 105.22C154.971 105.302 154.78 105.434 154.627 105.605C154.475 105.776 154.367 105.981 154.311 106.203C154.264 106.549 154.187 106.89 154.081 107.223C153.912 107.57 153.583 107.686 153.377 107.991C153.236 108.261 153.165 108.562 153.17 108.867C153.175 109.171 153.256 109.47 153.406 109.736C153.665 110.17 154.077 110.493 154.562 110.642C154.909 110.766 155.366 110.772 155.525 110.317Z" fill="white"/>
<path d="M163.598 112.745C163.724 113.07 163.892 113.378 164.098 113.66C164.485 114.048 165.01 113.809 165.479 113.715C165.904 113.648 166.34 113.697 166.74 113.857C167.14 114.017 167.489 114.281 167.75 114.623C167.568 113.719 167.171 112.872 166.593 112.153C166.014 111.433 165.271 110.863 164.425 110.489C163.32 110.04 162.156 109.997 161.007 109.957L160.808 110.007C161.314 111.475 162.903 111.442 163.598 112.745Z" fill="white"/>
<path d="M129.406 115.747L129.409 115.753C129.428 115.716 129.448 115.679 129.467 115.642L129.406 115.747Z" fill="#E6E6E6"/>
<path d="M128.182 118.109C127.915 118.593 127.685 119.095 127.495 119.614C127.243 120.453 127.076 121.315 126.997 122.187C126.934 122.683 126.915 123.317 127.227 123.559C127.317 123.618 127.425 123.643 127.531 123.628C127.638 123.614 127.735 123.561 127.806 123.48C127.979 123.298 128.121 123.088 128.225 122.859C128.838 121.807 129.314 120.681 129.641 119.51C129.94 118.275 129.937 116.822 129.409 115.753C129 116.539 128.591 117.324 128.182 118.109Z" fill="white"/>
<path d="M116.367 55.166C116.562 55.3555 116.808 55.4842 117.075 55.5361C117.342 55.588 117.618 55.561 117.87 55.4583C118.391 55.2311 118.869 54.9163 119.284 54.5275C119.627 54.2746 119.918 53.9582 120.141 53.5957C120.264 53.379 120.342 53.1403 120.372 52.8932C120.403 52.6462 120.383 52.3956 120.316 52.156C120.122 51.5916 119.631 51.4024 119.198 51.2743C118.504 51.0692 117.81 50.8641 117.116 50.6591L117.618 50.2082C117.101 49.9319 116.53 50.4446 116.207 51.0793C116 51.4938 115.856 51.9364 115.779 52.393C115.606 53.3892 115.775 54.5756 116.367 55.166Z" fill="#E6E6E6"/>
<path d="M128.618 51.0672C128.813 51.282 129.083 51.4147 129.374 51.4382C129.664 51.4618 129.952 51.3744 130.18 51.1938C130.376 51.047 130.539 50.8607 130.658 50.647C130.777 50.4333 130.85 50.1969 130.871 49.9534C130.92 49.4094 130.65 48.8048 130.265 48.7579L130.353 48.2486C129.61 48.1149 128.697 48.0881 128.299 48.9868C128.165 49.331 128.123 49.7043 128.179 50.0694C128.235 50.4345 128.386 50.7785 128.618 51.0672Z" fill="#E6E6E6"/>
<path d="M126.981 23.9831C122.628 23.4937 118.259 24.7478 114.833 27.4694C111.408 30.191 109.208 34.1572 108.717 38.4955C107.695 47.5295 112.47 67.1471 121.177 75.268C125.276 59.7091 139.642 50.4804 141.543 42.1858C143.574 33.3227 136.046 25.0021 126.981 23.9831Z" fill="#357960"/>
<path d="M123.971 44.0666C126.946 44.0666 129.357 41.663 129.357 38.698C129.357 35.7331 126.946 33.3295 123.971 33.3295C120.996 33.3295 118.584 35.7331 118.584 38.698C118.584 41.663 120.996 44.0666 123.971 44.0666Z" fill="white"/>
<path d="M118.307 83.0087C120.255 83.0087 121.835 81.4344 121.835 79.4924C121.835 77.5504 120.255 75.9761 118.307 75.9761C116.358 75.9761 114.779 77.5504 114.779 79.4924C114.779 81.4344 116.358 83.0087 118.307 83.0087Z" fill="#357960"/>
<path opacity="0.2" d="M128.427 34.8517C129.034 35.2148 129.562 35.6934 129.983 36.2601C130.404 36.8269 130.709 37.4706 130.88 38.1547C131.051 38.8388 131.085 39.5497 130.98 40.247C130.876 40.9442 130.635 41.6141 130.27 42.2184C129.906 42.8227 129.426 43.3495 128.857 43.7689C128.288 44.1882 127.642 44.4918 126.956 44.6624C125.57 45.0068 124.103 44.7883 122.879 44.0549C124.127 44.3317 125.434 44.1567 126.565 43.5611C127.696 42.9655 128.577 41.9882 129.051 40.8042C129.525 39.6202 129.56 38.3067 129.151 37.0989C128.742 35.8911 127.915 34.8677 126.819 34.212C127.386 34.3374 127.929 34.5534 128.427 34.8517Z" fill="#231F20"/>
<path opacity="0.2" d="M141.563 42.2031C139.663 50.4977 125.297 59.7264 121.198 75.2854C120.379 74.5143 119.618 73.6839 118.922 72.801C123.529 58.1761 137 49.2894 138.837 41.2753C140.481 34.1026 135.863 27.2858 129.238 24.4062C137.258 26.4155 143.425 34.0809 141.563 42.2031Z" fill="#231F20"/>
<path d="M76.5023 44.9304C73.2334 44.5629 69.952 45.5046 67.3798 47.5485C64.8076 49.5923 63.1554 52.5708 62.7866 55.8287C62.0188 62.6129 65.605 77.3451 72.1434 83.4436C75.222 71.7594 86.01 64.8289 87.4374 58.6C88.9627 51.9441 83.3095 45.6956 76.5023 44.9304Z" fill="#357960"/>
<path d="M74.2417 60.0124C76.4759 60.0124 78.287 58.2074 78.287 55.9808C78.287 53.7542 76.4759 51.9492 74.2417 51.9492C72.0076 51.9492 70.1965 53.7542 70.1965 55.9808C70.1965 58.2074 72.0076 60.0124 74.2417 60.0124Z" fill="white"/>
<path d="M69.9884 89.2566C71.4517 89.2566 72.6379 88.0743 72.6379 86.616C72.6379 85.1576 71.4517 83.9753 69.9884 83.9753C68.5251 83.9753 67.3389 85.1576 67.3389 86.616C67.3389 88.0743 68.5251 89.2566 69.9884 89.2566Z" fill="#357960"/>
<path opacity="0.2" d="M77.5886 53.0924C78.0439 53.3651 78.4409 53.7245 78.7569 54.1501C79.0728 54.5757 79.3016 55.0592 79.4301 55.5729C79.5586 56.0866 79.5843 56.6205 79.5058 57.1441C79.4273 57.6677 79.246 58.1708 78.9724 58.6246C78.6988 59.0784 78.3382 59.474 77.9112 59.7889C77.4841 60.1038 76.9991 60.3318 76.4836 60.4599C75.9682 60.588 75.4325 60.6136 74.9071 60.5353C74.3817 60.4571 73.877 60.2764 73.4216 60.0037C74.3592 60.2116 75.3404 60.0801 76.1897 59.6329C77.0389 59.1856 77.7007 58.4517 78.0566 57.5625C78.4125 56.6734 78.4393 55.687 78.1322 54.78C77.825 53.873 77.2041 53.1045 76.3804 52.6121C76.8065 52.7062 77.2145 52.8684 77.5886 53.0924Z" fill="#231F20"/>
<path opacity="0.2" d="M87.4534 58.613C86.0259 64.842 75.2379 71.7724 72.1593 83.4566C71.5444 82.8776 70.9733 82.254 70.4507 81.591C73.9102 70.6081 84.0267 63.9346 85.4059 57.9163C86.6403 52.5298 83.1728 47.4107 78.1975 45.2482C84.2202 46.7571 88.8512 52.5135 87.4534 58.613Z" fill="#231F20"/>
<path d="M203.149 190.977H198.708L196.595 173.903L203.15 173.904L203.149 190.977Z" fill="#A0616A"/>
<path d="M205.539 199.382H202.387L201.824 196.417L200.384 199.382H192.025C191.624 199.382 191.234 199.255 190.911 199.018C190.589 198.781 190.35 198.448 190.231 198.067C190.112 197.686 190.118 197.277 190.248 196.899C190.379 196.522 190.627 196.196 190.957 195.969L197.632 191.374V188.376L204.653 188.794L205.539 199.382Z" fill="#2F2E41"/>
<path d="M185.946 190.977H181.505L179.392 173.903L185.947 173.904L185.946 190.977Z" fill="#A0616A"/>
<path d="M188.336 199.382H185.184L184.622 196.417L183.181 199.382H174.822C174.421 199.382 174.031 199.255 173.708 199.018C173.386 198.781 173.147 198.448 173.028 198.067C172.909 197.686 172.915 197.277 173.046 196.899C173.176 196.522 173.425 196.196 173.754 195.969L180.429 191.374V188.376L187.45 188.794L188.336 199.382Z" fill="#2F2E41"/>
<path d="M169.073 145.898C169.922 147.169 179.169 182.099 179.169 182.099L187.368 183.031L186.395 174.242L184.907 158.689L182.604 148.308C182.604 148.308 190.738 129.859 191.252 128.389L191.618 127.334L194.159 150.32C194.461 151.141 194.592 152.014 194.546 152.887C194.469 154.323 195.914 175.924 195.914 175.924L196.609 183.67L203.633 184.643L206.483 171.239C208.863 166.885 207.499 151.413 206.526 149.973C205.553 148.533 205.939 138.503 205.939 138.503C207.182 138.067 214.593 112.882 210.886 113.031C211.124 111.688 211.311 110.49 211.311 110.49L204.877 105.318L188.774 101.146L184.712 99.2021C184.712 99.2021 177.456 112.574 177.529 113.239C177.629 114.081 177.435 114.932 176.98 115.648L169.655 140.083C169.655 140.083 168.214 144.615 169.073 145.898Z" fill="#2F2E41"/>
<path d="M209.527 58.4626L206.965 53.042L198.247 53.376L195.403 59.0152C195.403 59.0152 187.275 68.6899 187.012 71.8358C186.681 75.7924 189.431 95.1837 186.681 93.9267C186.681 93.9267 180.199 101.51 184.035 101.51C187.871 101.51 205.222 112.366 206.36 113.587C207.499 114.807 212.581 115.599 212.155 113.05C211.729 110.502 209.527 96.7181 209.527 96.7181L215.488 75.045C217.204 70.3657 217.738 65.1171 213.859 61.9739L209.527 58.4626Z" fill="#CCCCCC"/>
<path d="M177.232 42.5083C176.066 42.047 174.82 41.8191 173.565 41.8376C172.311 41.8561 171.072 42.1208 169.92 42.6164C168.768 43.112 167.725 43.8289 166.851 44.7261C165.977 45.6234 165.289 46.6834 164.826 47.8457C162.879 52.7337 162.557 64.4067 166.18 70.257C170.838 62.1924 180.263 59.2145 182.587 54.8721C185.071 50.2321 182.136 44.4487 177.232 42.5083Z" fill="#357960"/>
<path d="M173.31 53.3722C175.031 53.3722 176.426 51.9818 176.426 50.2667C176.426 48.5515 175.031 47.1611 173.31 47.1611C171.589 47.1611 170.194 48.5515 170.194 50.2667C170.194 51.9818 171.589 53.3722 173.31 53.3722Z" fill="white"/>
<path d="M163.934 74.2149C165.062 74.2149 165.975 73.3042 165.975 72.1808C165.975 71.0574 165.062 70.1467 163.934 70.1467C162.807 70.1467 161.894 71.0574 161.894 72.1808C161.894 73.3042 162.807 74.2149 163.934 74.2149Z" fill="#357960"/>
<path opacity="0.2" d="M176.384 48.7941C176.955 49.3889 177.265 50.1852 177.247 51.0081C177.229 51.831 176.884 52.6132 176.288 53.1827C175.692 53.7522 174.893 54.0625 174.067 54.0455C173.242 54.0284 172.457 53.6854 171.885 53.0917C172.539 53.4351 173.295 53.5351 174.017 53.3737C174.739 53.2124 175.38 52.8002 175.825 52.211C176.27 51.6218 176.49 50.8941 176.445 50.158C176.401 49.4219 176.095 48.7256 175.583 48.1936C175.881 48.3494 176.151 48.5522 176.384 48.7941Z" fill="#231F20"/>
<path opacity="0.2" d="M182.596 54.885C180.272 59.2274 170.847 62.2053 166.189 70.2699C165.849 69.7156 165.551 69.137 165.297 68.5389C170.097 61.0724 178.97 58.1501 181.216 53.9546C183.226 50.1995 181.687 45.6959 178.427 43.0861C182.598 45.4211 184.873 50.6329 182.596 54.885Z" fill="#231F20"/>
<path d="M163.015 71.4805C163.489 71.383 163.979 71.3904 164.45 71.5021C164.922 71.6139 165.363 71.8272 165.742 72.1272C166.122 72.4271 166.431 72.8064 166.647 73.2382C166.864 73.6701 166.983 74.144 166.996 74.6266L174.065 77.331L173.464 82.0134L163.535 78.0545C162.72 78.0224 161.945 77.6935 161.357 77.1302C160.769 76.5668 160.409 75.808 160.345 74.9977C160.281 74.1873 160.517 73.3817 161.009 72.7335C161.501 72.0852 162.215 71.6394 163.015 71.4805Z" fill="#A0616A"/>
<path d="M212.409 61.8314C211.665 61.3785 210.838 61.0765 209.977 60.9428C209.115 60.809 208.235 60.8461 207.388 61.052C206.541 61.2578 205.743 61.6283 205.039 62.1422C204.336 62.6562 203.742 63.3034 203.29 64.0468L193.143 80.7466L170.201 75.3268L168.111 81.0456L197.49 94.9153L212.37 71.2954C214.598 68.1753 215.689 63.8268 212.409 61.8314Z" fill="#CCCCCC"/>
<path d="M212.788 41.3653C212.789 42.9749 212.393 44.56 211.635 45.9814C210.878 47.4029 209.782 48.6173 208.443 49.5181C207.105 50.4188 205.565 50.9784 203.959 51.1475C202.353 51.3167 200.73 51.0904 199.232 50.4884C197.734 49.8865 196.408 48.9273 195.369 47.695C194.33 46.4628 193.61 44.9952 193.273 43.4211C192.936 41.847 192.992 40.2145 193.435 38.6669C193.879 37.1193 194.697 35.7039 195.818 34.5451L195.866 34.4979C195.945 34.4153 196.023 34.3327 196.106 34.254C196.107 34.254 196.107 34.2539 196.108 34.2537C196.108 34.2535 196.109 34.2532 196.109 34.2529C196.11 34.2525 196.11 34.2521 196.11 34.2516C196.11 34.2511 196.11 34.2506 196.11 34.2501C196.213 34.1557 196.315 34.0613 196.422 33.9708C197.848 32.7251 199.603 31.9153 201.479 31.6384C203.354 31.3614 205.27 31.6291 206.997 32.4093C208.724 33.1895 210.189 34.4492 211.216 36.0376C212.243 37.626 212.789 39.4757 212.788 41.3653Z" fill="#2F2E41"/>
<path d="M200.491 51.8858C205.06 51.8858 208.764 48.1942 208.764 43.6403C208.764 39.0865 205.06 35.3949 200.491 35.3949C195.922 35.3949 192.218 39.0865 192.218 43.6403C192.218 48.1942 195.922 51.8858 200.491 51.8858Z" fill="#9E616A"/>
<path d="M209.277 45.9918L207.906 45.7505C207.14 45.6118 206.435 45.2433 205.885 44.6943C205.334 44.1453 204.966 43.442 204.828 42.6784L203.49 44.9125L203.432 44.9319C200.245 45.9864 196.929 45.671 193.297 43.969C192.259 43.478 191.251 42.9245 190.28 42.3114L190.209 42.2668L190.203 42.1829C190.018 39.5006 190.622 37.2597 191.904 35.8731C192.396 35.3514 192.994 34.9392 193.657 34.6637C194.32 34.3881 195.034 34.2553 195.753 34.2741C195.804 34.2608 195.851 34.2349 195.889 34.1989C195.908 34.1854 195.926 34.172 195.945 34.1593V34.1454L196.04 34.1008C196.244 34.0052 196.452 33.9136 196.66 33.8299C198.297 33.1983 200.08 33.0399 201.803 33.3728C203.526 33.7057 205.12 34.5165 206.402 35.7119C208.951 38.1366 210.119 42.2058 209.311 45.8378L209.277 45.9918Z" fill="#2F2E41"/>
<path d="M226.727 53.017C223.911 51.5687 227.532 46.3124 226.805 43.2392C226.077 40.166 220.837 39.1775 220.504 36.0375C220.17 32.8974 219.385 29.6588 217.306 27.2761C215.977 25.7536 214.02 24.6296 212.004 24.8203C211.322 24.8848 210.662 25.0951 210.069 25.4367C209.476 25.7784 208.964 26.2434 208.567 26.8001C208.171 27.3568 207.9 27.9921 207.772 28.6628C207.644 29.3335 207.662 30.0238 207.826 30.6866C207.252 29.8763 205.767 30.0519 205.4 30.9737C205.073 31.7931 205.795 32.7857 206.645 32.8582C207.756 34.2265 209.029 35.6786 210.771 35.9547C211.049 36.0182 211.337 36.018 211.614 35.9542C211.892 35.8904 212.151 35.7646 212.373 35.5863C212.782 35.1941 212.814 34.41 212.328 34.117C214.517 34.9835 215.8 37.3421 216.125 39.6669C216.45 41.9918 216 44.344 215.704 46.6726C215.408 49.0013 215.281 51.4509 216.197 53.6133C217.279 56.1682 219.771 57.9994 222.491 58.5866C225.21 59.1739 228.107 58.5999 230.569 57.3069C233.03 56.0137 235.083 54.0396 236.76 51.8264C233.871 53.8707 229.875 54.6365 226.727 53.017Z" fill="#2F2E41"/>
<path d="M208.925 45.7626C208.925 45.7626 206.474 36.6454 195.968 34.5411C195.956 34.5372 195.917 34.5215 195.866 34.4979C195.834 34.4782 195.795 34.4585 195.755 34.4389C195.874 34.372 195.988 34.313 196.106 34.254L196.108 34.2537L196.109 34.2528L196.11 34.2516L196.11 34.25C196.213 34.1556 196.316 34.0613 196.422 33.9708L196.722 33.9826C196.722 33.9826 207.263 32.3189 208.925 45.7626Z" fill="#F4BD1A"/>
<path opacity="0.2" d="M203.437 75.0173L197.504 81.8685L187.7 78.9832L198.388 83.892L203.437 75.0173Z" fill="black"/>
<path d="M239.052 199.899L147.826 200C147.722 200 147.622 199.958 147.548 199.885C147.474 199.811 147.433 199.711 147.433 199.607C147.433 199.504 147.474 199.404 147.548 199.33C147.622 199.257 147.722 199.215 147.826 199.215L239.052 199.114C239.156 199.114 239.256 199.155 239.33 199.228C239.404 199.302 239.446 199.402 239.446 199.506C239.446 199.61 239.404 199.71 239.33 199.784C239.256 199.857 239.156 199.899 239.052 199.899Z" fill="#CACACA"/>
<path d="M243.056 138.888C238.784 138.888 234.102 138.727 229.01 138.406C202.672 136.739 168.555 130.943 132.945 122.087C97.3359 113.231 64.4872 102.372 40.4508 91.5112C28.7419 86.2203 19.7554 81.2121 13.7412 76.6254C7.37377 71.7697 4.58855 67.5372 5.46263 64.0459C7.16573 57.2442 22.2459 55.7561 34.5967 55.7056L34.6009 56.6947C17.64 56.7641 7.63386 59.4599 6.42572 64.2854C4.88676 70.4314 17.4379 80.0263 40.8606 90.6103C64.8442 101.447 97.6325 112.286 133.186 121.128C168.739 129.969 202.793 135.755 229.073 137.418C254.738 139.043 270.342 136.45 271.88 130.304C273.158 125.201 264.735 117.684 248.163 109.137L248.62 108.258C260.661 114.469 274.638 123.376 272.843 130.543C271.969 134.035 267.515 136.467 259.605 137.772C255.096 138.515 249.558 138.888 243.056 138.888Z" fill="#F4BD1A"/>
</g>
<defs>
<clipPath id="clip0_159_289">
<rect width="273" height="200" fill="white"/>
</clipPath>
</defs>
</svg>
