<svg width="165" height="165" viewBox="0 0 165 165" fill="none" xmlns="http://www.w3.org/2000/svg">
<path d="M0 40C0 21.1438 0 11.7157 5.85786 5.85786C11.7157 0 21.1438 0 40 0H125C143.856 0 153.284 0 159.142 5.85786C165 11.7157 165 21.1438 165 40V125C165 143.856 165 153.284 159.142 159.142C153.284 165 143.856 165 125 165H40C21.1438 165 11.7157 165 5.85786 159.142C0 153.284 0 143.856 0 125V40Z" fill="#357960"/>
<path d="M36.2354 62.2066V48.8529H49.589" stroke="white" stroke-width="5" stroke-miterlimit="10" stroke-linecap="round" stroke-linejoin="round"/>
<path d="M129.711 62.2066V48.8529H116.357" stroke="white" stroke-width="5" stroke-miterlimit="10" stroke-linecap="round" stroke-linejoin="round"/>
<path d="M36.2354 102.268V115.621H49.589" stroke="white" stroke-width="5" stroke-miterlimit="10" stroke-linecap="round" stroke-linejoin="round"/>
<path d="M129.711 102.268V115.621H116.357" stroke="white" stroke-width="5" stroke-miterlimit="10" stroke-linecap="round" stroke-linejoin="round"/>
<path d="M49.5891 58.8682V78.8987" stroke="white" stroke-width="5" stroke-miterlimit="10" stroke-linecap="round" stroke-linejoin="round"/>
<path d="M66.281 58.8682V78.8987" stroke="white" stroke-width="5" stroke-miterlimit="10" stroke-linecap="round" stroke-linejoin="round"/>
<path d="M116.357 58.8682V78.8987" stroke="white" stroke-width="5" stroke-miterlimit="10" stroke-linecap="round" stroke-linejoin="round"/>
<path d="M99.6653 58.8682V78.8987" stroke="white" stroke-width="5" stroke-miterlimit="10" stroke-linecap="round" stroke-linejoin="round"/>
<path d="M82.9731 58.8682V78.8987" stroke="white" stroke-width="5" stroke-miterlimit="10" stroke-linecap="round" stroke-linejoin="round"/>
<path d="M36.2354 88.9139H129.711" stroke="white" stroke-width="5" stroke-miterlimit="10" stroke-linecap="round" stroke-linejoin="round"/>
<path d="M49.5891 98.9292V105.606" stroke="white" stroke-width="5" stroke-miterlimit="10" stroke-linecap="round" stroke-linejoin="round"/>
<path d="M66.281 98.9292V102.268" stroke="white" stroke-width="5" stroke-miterlimit="10" stroke-linecap="round" stroke-linejoin="round"/>
<path d="M116.357 98.9292V105.606" stroke="white" stroke-width="5" stroke-miterlimit="10" stroke-linecap="round" stroke-linejoin="round"/>
<path d="M99.6653 98.9292V102.268" stroke="white" stroke-width="5" stroke-miterlimit="10" stroke-linecap="round" stroke-linejoin="round"/>
<path d="M82.9731 98.9292V102.268" stroke="white" stroke-width="5" stroke-miterlimit="10" stroke-linecap="round" stroke-linejoin="round"/>
</svg>
